<svg width="765" height="513" viewBox="0 0 765 513" fill="none" xmlns="http://www.w3.org/2000/svg">
<path d="M464.893 47.7776C442.393 54.1776 421.193 65.3776 403.093 80.1776C387.493 92.9776 374.093 108.778 366.093 127.278C360.693 139.878 357.793 153.378 355.593 166.978C350.593 197.378 348.393 228.978 356.993 258.578C368.993 299.878 401.893 333.578 441.393 350.578C480.893 367.578 526.093 368.578 567.693 357.878C590.493 351.978 612.893 342.378 630.393 326.578C655.193 304.178 669.293 270.478 697.393 252.478C720.993 237.378 750.993 235.678 774.993 221.378C803.293 204.478 819.693 170.778 819.193 137.678C818.593 104.578 802.393 72.8776 778.493 50.1776C754.593 27.3776 723.493 13.1776 691.293 5.87757C650.793 -3.32243 607.993 -1.62244 568.293 10.2776C551.793 15.2776 540.093 24.7776 524.793 31.6776C505.593 39.9776 484.593 42.1776 464.893 47.7776Z" fill="#EBF6FF"/>
<path d="M454.894 168.478H366.294C364.494 168.478 362.994 166.978 362.994 165.178C362.994 163.378 364.494 161.878 366.294 161.878H454.894C456.694 161.878 458.194 163.378 458.194 165.178C458.194 166.978 456.694 168.478 454.894 168.478Z" fill="#CFDAEE"/>
<path d="M389.994 117.978H379.594V161.478H389.994V117.978Z" fill="url(#paint0_linear_341_472)"/>
<path d="M389.894 154.778H379.594V158.278H389.894V154.778Z" fill="#F7E4DD"/>
<path d="M387.794 124.378H381.594V126.478H387.794V124.378Z" fill="#F7E4DD"/>
<path d="M414.294 117.978H403.894V161.478H414.294V117.978Z" fill="url(#paint1_linear_341_472)"/>
<path d="M414.194 154.778H403.894V158.278H414.194V154.778Z" fill="#FCF8E3"/>
<path d="M412.094 124.378H405.894V126.478H412.094V124.378Z" fill="#FCF8E3"/>
<path d="M401.894 117.978H391.494V161.478H401.894V117.978Z" fill="url(#paint2_linear_341_472)"/>
<path d="M398.994 124.178H394.394V151.378H398.994V124.178Z" fill="#EAEFF8"/>
<path d="M426.593 117.978H416.193V161.478H426.593V117.978Z" fill="url(#paint3_linear_341_472)"/>
<path d="M424.393 124.378H418.193V126.478H424.393V124.378Z" fill="#F7E4DD"/>
<path d="M424.393 155.378H418.193V158.278H424.393V155.378Z" fill="#F7E4DD"/>
<path d="M438.494 117.978H428.094V161.478H438.494V117.978Z" fill="url(#paint4_linear_341_472)"/>
<path d="M435.594 126.778H430.994V153.978H435.594V126.778Z" fill="#EAEFF8"/>
<path d="M456.793 63.6776H393.693C389.293 63.6776 385.693 67.2776 385.693 71.6776V96.1776C385.693 100.578 389.293 104.178 393.693 104.178H435.493L451.093 126.478L446.993 104.178H456.893C461.293 104.178 464.893 100.578 464.893 96.1776V71.6776C464.793 67.2776 461.193 63.6776 456.793 63.6776Z" fill="url(#paint5_linear_341_472)"/>
<path d="M394.993 96.3776H438.793C440.193 96.3776 441.193 95.2776 441.193 93.9776C441.193 92.5776 440.093 91.5776 438.793 91.5776H394.993C393.593 91.5776 392.593 92.6776 392.593 93.9776C392.493 95.2776 393.593 96.3776 394.993 96.3776Z" fill="#D6DFF1"/>
<path d="M394.993 85.8776H453.793C455.193 85.8776 456.193 84.7776 456.193 83.4776C456.193 82.0776 455.093 81.0776 453.793 81.0776H394.993C393.593 81.0776 392.593 82.1776 392.593 83.4776C392.493 84.7776 393.593 85.8776 394.993 85.8776Z" fill="#D6DFF1"/>
<path d="M394.993 75.3776H453.793C455.193 75.3776 456.193 74.2776 456.193 72.9776C456.193 71.5776 455.093 70.5776 453.793 70.5776H394.993C393.593 70.5776 392.593 71.6776 392.593 72.9776C392.493 74.2776 393.593 75.3776 394.993 75.3776Z" fill="#D6DFF1"/>
<path d="M453.694 96.4776C455.185 96.4776 456.394 95.2688 456.394 93.7776C456.394 92.2864 455.185 91.0776 453.694 91.0776C452.202 91.0776 450.994 92.2864 450.994 93.7776C450.994 95.2688 452.202 96.4776 453.694 96.4776Z" fill="#D6DFF1"/>
<path d="M552.893 99.2776C569.02 99.2776 582.093 86.1595 582.093 69.9776C582.093 53.7957 569.02 40.6776 552.893 40.6776C536.767 40.6776 523.693 53.7957 523.693 69.9776C523.693 86.1595 536.767 99.2776 552.893 99.2776Z" fill="url(#paint6_linear_341_472)"/>
<path d="M552.894 91.8776C564.933 91.8776 574.694 82.0726 574.694 69.9776C574.694 57.8826 564.933 48.0776 552.894 48.0776C540.854 48.0776 531.094 57.8826 531.094 69.9776C531.094 82.0726 540.854 91.8776 552.894 91.8776Z" fill="white"/>
<path d="M559.793 57.6776C560.793 58.2776 561.993 57.8776 562.493 56.8776C563.093 55.8776 562.693 54.6776 561.693 54.1776C560.693 53.5776 559.493 53.9776 558.993 54.9776C558.593 55.6776 558.693 56.3776 558.993 56.9776C559.293 57.2776 559.493 57.4776 559.793 57.6776Z" fill="#D6DFF1"/>
<path d="M565.194 63.4776C566.194 64.0776 567.394 63.6776 567.894 62.6776C568.494 61.6776 568.094 60.4776 567.094 59.9776C566.094 59.3776 564.894 59.7776 564.394 60.7776C563.994 61.4776 564.094 62.1776 564.394 62.7776C564.594 62.9776 564.894 63.2776 565.194 63.4776Z" fill="#D6DFF1"/>
<path d="M552.793 55.8776C553.893 55.8776 554.793 54.9776 554.793 53.8776C554.793 52.7776 553.893 51.8776 552.793 51.8776C551.693 51.8776 550.793 52.7776 550.793 53.8776C550.793 54.2776 550.894 54.5776 551.094 54.8776C551.394 55.4776 552.093 55.8776 552.793 55.8776Z" fill="#D6DFF1"/>
<path d="M553.094 84.0776C551.994 84.0776 551.094 84.9776 551.094 86.0776C551.094 86.4776 551.194 86.7776 551.394 87.0776C551.694 87.6776 552.394 88.0776 553.094 88.0776C554.194 88.0776 555.094 87.1776 555.094 86.0776C555.094 84.9776 554.194 84.0776 553.094 84.0776Z" fill="#D6DFF1"/>
<path d="M560.094 82.0776C559.194 82.6776 558.794 83.8776 559.394 84.7776C559.994 85.7776 561.194 86.0776 562.094 85.4776C562.994 84.8776 563.394 83.6776 562.794 82.7776C562.194 81.8776 560.994 81.5776 560.094 82.0776Z" fill="#D6DFF1"/>
<path d="M567.893 76.1776C566.893 75.6776 565.694 75.9776 565.194 76.9776C564.794 77.6776 564.894 78.3776 565.194 78.9776C565.394 79.2776 565.593 79.5776 565.893 79.6776C566.893 80.2776 568.094 79.8776 568.594 78.8776C569.194 77.9776 568.893 76.6776 567.893 76.1776Z" fill="#D6DFF1"/>
<path d="M538.793 70.1776C538.793 69.0776 537.893 68.1776 536.793 68.1776C535.693 68.1776 534.793 69.0776 534.793 70.1776C534.793 70.5776 534.894 70.8776 535.094 71.1776C535.394 71.7776 536.093 72.1776 536.793 72.1776C537.993 72.1776 538.893 71.2776 538.793 70.1776Z" fill="#D6DFF1"/>
<path d="M538.094 76.4776C537.194 77.0776 536.794 78.2776 537.394 79.1776C537.994 80.0776 539.194 80.4776 540.094 79.8776C540.994 79.2776 541.294 78.0776 540.794 77.0776C540.194 76.1776 538.994 75.8776 538.094 76.4776Z" fill="#D6DFF1"/>
<path d="M566.994 69.8776C566.994 70.2776 567.094 70.5776 567.294 70.8776C567.594 71.4776 568.294 71.8776 568.994 71.8776C570.094 71.8776 570.994 70.9776 570.994 69.8776C570.994 68.7776 570.094 67.8776 568.994 67.8776C567.894 67.8776 566.994 68.7776 566.994 69.8776Z" fill="#D6DFF1"/>
<path d="M537.894 63.7776C538.894 64.3776 540.094 63.9776 540.594 62.9776C541.094 61.9776 540.794 60.7776 539.794 60.2776C538.794 59.7776 537.594 60.0776 537.094 61.0776C536.794 61.6776 536.794 62.4776 537.094 63.0776C537.394 63.3776 537.594 63.6776 537.894 63.7776Z" fill="#D6DFF1"/>
<path d="M545.693 57.8776C545.693 57.8776 545.793 57.8776 545.693 57.8776C545.793 57.8776 545.793 57.8776 545.693 57.8776C545.793 57.7776 545.793 57.7776 545.693 57.8776C546.693 57.2776 546.993 56.0776 546.493 55.0776C545.893 54.0776 544.693 53.7776 543.793 54.3776C542.893 54.9776 542.493 56.1776 543.093 57.0776C543.593 58.0776 544.793 58.3776 545.693 57.8776Z" fill="#D6DFF1"/>
<path d="M545.994 82.2776C544.994 81.6776 543.794 82.0776 543.294 83.0776C542.894 83.7776 542.994 84.4776 543.294 85.0776C543.494 85.3776 543.694 85.6776 543.994 85.7776C544.994 86.2776 546.194 85.9776 546.694 84.9776C547.294 83.9776 546.994 82.7776 545.994 82.2776Z" fill="#D6DFF1"/>
<path d="M552.793 52.0776L552.893 70.8776L563.494 63.6776" stroke="#7492C9" stroke-width="0.9392" stroke-miterlimit="10"/>
<path d="M472.294 177.978C483.894 173.678 486.994 175.378 488.394 171.478C488.394 171.378 488.494 171.378 488.494 171.278C488.594 170.978 488.694 170.778 488.694 170.478L489.494 165.578C490.794 159.778 492.494 144.778 492.494 144.778L500.694 147.678L512.494 137.778C512.494 137.778 514.794 164.178 515.594 169.278C515.694 169.678 515.794 169.978 515.894 170.378C515.894 170.478 515.994 170.578 515.994 170.578C516.194 170.878 516.294 171.178 516.494 171.478C518.894 174.678 524.994 176.878 532.294 179.978C530.194 183.978 528.894 188.178 528.094 192.778C527.294 196.878 526.294 200.978 525.694 205.178C515.794 199.078 503.494 201.178 492.994 201.078C484.394 200.978 476.494 201.978 471.794 202.678C471.694 194.378 471.194 186.178 472.294 177.978Z" fill="url(#paint7_linear_341_472)"/>
<path opacity="0.3" d="M497.994 160.078C495.294 160.578 492.794 161.078 490.494 160.278C491.894 151.478 494.594 139.678 494.594 139.678L512.694 140.678C511.894 150.678 505.994 158.578 497.994 160.078Z" fill="url(#paint8_linear_341_472)"/>
<path d="M521.793 175.478C517.793 180.078 508.894 183.378 498.594 183.378C488.694 183.378 480.194 180.378 475.994 176.078C474.594 176.478 473.093 176.978 471.293 177.678C470.193 185.878 487.494 231.778 487.694 240.078C492.494 239.378 501.094 261.478 501.094 261.478C501.094 261.478 518.094 220.478 524.694 204.878C525.294 200.678 526.394 196.578 527.094 192.478C527.894 187.878 529.193 183.678 531.293 179.678C527.793 178.078 524.493 176.778 521.793 175.478Z" fill="#EEBF3B"/>
<path d="M513.893 199.278C514.832 199.278 515.593 198.516 515.593 197.578C515.593 196.639 514.832 195.878 513.893 195.878C512.954 195.878 512.193 196.639 512.193 197.578C512.193 198.516 512.954 199.278 513.893 199.278Z" fill="#F8ECD6"/>
<path d="M501.893 191.578C502.832 191.578 503.593 190.816 503.593 189.878C503.593 188.939 502.832 188.178 501.893 188.178C500.954 188.178 500.193 188.939 500.193 189.878C500.193 190.816 500.954 191.578 501.893 191.578Z" fill="#F8ECD6"/>
<path d="M498.694 205.678C499.632 205.678 500.394 204.916 500.394 203.978C500.394 203.039 499.632 202.278 498.694 202.278C497.755 202.278 496.994 203.039 496.994 203.978C496.994 204.916 497.755 205.678 498.694 205.678Z" fill="#F8ECD6"/>
<path d="M493.194 217.578C494.132 217.578 494.894 216.816 494.894 215.878C494.894 214.939 494.132 214.178 493.194 214.178C492.255 214.178 491.494 214.939 491.494 215.878C491.494 216.816 492.255 217.578 493.194 217.578Z" fill="#F8ECD6"/>
<path d="M502.294 241.478C503.233 241.478 503.994 240.717 503.994 239.778C503.994 238.839 503.233 238.078 502.294 238.078C501.355 238.078 500.594 238.839 500.594 239.778C500.594 240.717 501.355 241.478 502.294 241.478Z" fill="#F8ECD6"/>
<path d="M486.494 197.778C487.432 197.778 488.193 197.016 488.193 196.078C488.193 195.139 487.432 194.378 486.494 194.378C485.555 194.378 484.793 195.139 484.793 196.078C484.793 197.016 485.555 197.778 486.494 197.778Z" fill="#F8ECD6"/>
<path d="M504.594 220.678C505.533 220.678 506.294 219.916 506.294 218.978C506.294 218.039 505.533 217.278 504.594 217.278C503.655 217.278 502.894 218.039 502.894 218.978C502.894 219.916 503.655 220.678 504.594 220.678Z" fill="#F8ECD6"/>
<path d="M497.694 232.078C498.632 232.078 499.394 231.316 499.394 230.378C499.394 229.439 498.632 228.678 497.694 228.678C496.755 228.678 495.994 229.439 495.994 230.378C495.994 231.316 496.755 232.078 497.694 232.078Z" fill="#F8ECD6"/>
<path d="M511.094 211.078C512.033 211.078 512.794 210.316 512.794 209.378C512.794 208.439 512.033 207.678 511.094 207.678C510.155 207.678 509.394 208.439 509.394 209.378C509.394 210.316 510.155 211.078 511.094 211.078Z" fill="#F8ECD6"/>
<path d="M442.294 198.378C444.294 194.978 445.494 192.378 448.694 190.078C450.094 189.078 452.794 188.378 453.994 186.978C455.194 185.678 457.194 186.478 458.694 185.578C462.194 183.278 465.594 181.078 469.294 179.078C469.694 178.878 469.994 178.678 470.394 178.478C470.194 179.778 471.794 180.778 472.394 181.678C473.094 182.978 473.094 184.478 473.694 185.878C474.494 187.678 475.494 189.378 476.194 191.278C477.394 194.278 478.594 196.978 480.194 199.778C481.794 202.678 483.594 205.478 484.694 208.678C484.794 208.878 484.894 209.178 484.894 209.378C487.294 217.178 488.794 224.778 489.494 232.878C489.894 237.478 490.694 241.878 491.494 246.378C492.194 250.078 493.394 246.978 494.394 250.578C495.494 254.678 501.094 261.478 500.894 260.678C500.994 261.378 501.194 260.878 502.994 258.778C507.794 253.178 508.394 248.178 510.194 240.978C511.094 237.478 511.794 233.978 512.794 230.478C513.894 226.678 515.894 223.078 517.094 219.178C519.494 210.878 524.094 203.378 526.694 195.078C527.594 192.178 527.394 189.278 529.094 186.778C529.894 185.678 530.994 184.878 531.894 183.878C532.294 183.378 532.494 182.878 532.894 182.378C533.194 181.878 533.794 181.578 534.094 181.078C543.994 185.478 555.194 188.378 559.094 199.578C566.994 222.078 559.394 250.078 555.494 272.578C554.694 277.178 554.694 284.178 554.194 288.978C554.094 289.778 537.094 291.378 536.994 292.178L441.894 291.678C441.894 288.178 442.394 282.578 441.894 279.078C440.294 268.178 442.494 256.878 441.194 245.878C440.594 241.178 440.894 236.378 439.894 231.678C439.194 228.478 438.594 225.778 438.594 222.478C438.094 214.078 437.794 205.978 442.294 198.378Z" fill="#4E6BB1"/>
<path d="M531.693 180.078C531.393 179.978 531.293 179.778 531.193 179.678C531.293 179.778 531.393 179.778 531.493 179.878C531.693 179.978 531.993 180.078 532.193 180.178C531.993 180.178 531.793 180.078 531.693 180.078Z" fill="#4E6BB1"/>
<path d="M465.793 255.078C470.493 263.378 482.394 266.478 490.494 261.578" stroke="#8097CB" stroke-width="0.6622" stroke-miterlimit="10"/>
<path d="M511.293 260.378C514.793 262.778 519.193 263.878 523.393 263.378C527.593 262.878 531.593 260.778 534.393 257.578C534.993 256.878 536.194 256.078 536.494 255.278" stroke="#8097CB" stroke-width="0.6622" stroke-miterlimit="10"/>
<path d="M471.094 177.978C471.094 177.978 474.494 185.278 482.194 206.478C489.894 227.678 501.094 261.278 501.094 261.278C501.094 261.278 482.194 240.478 462.294 226.078C456.994 222.178 470.194 215.178 470.194 215.178C470.194 215.178 456.494 213.878 450.794 206.878C446.994 202.178 446.094 192.578 446.094 192.578C446.094 192.578 448.894 187.678 458.294 183.978C465.294 181.278 471.094 177.978 471.094 177.978Z" fill="url(#paint9_linear_341_472)"/>
<path d="M472.794 176.978C472.794 176.978 475.394 182.878 483.094 203.978C490.794 225.178 501.094 261.378 501.094 261.378C501.094 261.378 483.094 238.078 463.194 223.678C457.894 219.778 471.094 212.778 471.094 212.778C471.094 212.778 457.394 211.478 451.694 204.478C447.894 199.778 446.994 190.178 446.994 190.178C446.994 190.178 449.794 185.278 459.194 181.578C466.194 178.878 472.794 176.978 472.794 176.978Z" fill="#8097CB"/>
<path d="M531.394 179.978C531.394 179.978 527.994 187.278 520.294 208.478C512.594 229.678 501.094 261.378 501.094 261.378C501.094 261.378 520.194 242.578 540.094 228.178C545.394 224.278 532.194 217.278 532.194 217.278C532.194 217.278 545.894 215.978 551.594 208.978C555.394 204.278 556.294 194.678 556.294 194.678C556.294 194.678 553.494 189.778 544.094 186.078C537.194 183.178 531.394 179.978 531.394 179.978Z" fill="url(#paint10_linear_341_472)"/>
<path d="M529.794 178.578C529.794 178.578 526.294 185.578 518.694 206.778C511.094 227.978 501.094 261.278 501.094 261.278C501.094 261.278 518.694 240.778 538.594 226.478C543.894 222.578 530.694 215.578 530.694 215.578C530.694 215.578 544.394 214.278 550.094 207.278C553.894 202.578 554.794 192.978 554.794 192.978C554.794 192.978 551.694 187.278 542.294 183.678C535.194 180.778 529.794 178.578 529.794 178.578Z" fill="#8097CB"/>
<path d="M589.093 186.278C590.293 186.378 590.893 184.378 591.093 183.378C591.293 182.378 591.493 181.478 591.893 180.578C592.393 179.678 593.193 179.278 593.893 178.678C595.693 177.078 598.093 175.978 599.693 174.078C600.693 172.878 602.693 172.578 603.993 171.778C604.493 171.478 604.993 171.178 605.493 170.878C605.993 170.578 606.493 170.478 607.093 170.378C607.593 170.278 607.993 170.578 608.493 170.678C609.493 170.878 610.293 170.378 611.193 170.078C611.793 169.878 612.293 169.778 612.893 169.578C613.993 169.178 614.893 168.778 616.193 168.678C617.393 168.578 618.293 167.878 619.293 167.278C619.993 166.878 620.893 166.478 621.593 165.978C620.893 165.878 620.393 165.578 619.693 165.678C618.893 165.778 618.093 165.878 617.393 166.078C617.093 166.178 616.793 166.378 616.493 166.478C616.193 166.578 615.893 166.578 615.593 166.578C615.093 166.578 614.493 166.678 613.993 166.678C613.193 166.778 612.393 167.178 611.493 167.078C611.993 166.678 612.493 166.278 613.093 165.878C616.593 163.678 620.493 161.978 624.293 160.278C625.193 159.878 626.093 159.778 626.993 159.478C625.693 158.878 624.393 158.678 623.093 158.778C615.693 159.478 605.193 171.278 620.993 154.178C624.593 150.378 627.193 150.378 623.393 150.778C622.293 150.878 621.193 151.478 620.293 152.078C618.993 152.878 617.793 153.778 616.593 154.778C614.493 156.478 612.393 158.278 610.193 159.978C609.893 160.178 609.393 160.678 608.993 160.478C608.393 160.078 609.293 157.778 609.493 157.378C609.893 156.378 609.993 155.278 610.393 154.278C609.993 154.078 609.493 154.178 609.093 154.078C608.593 153.978 608.093 153.778 607.593 153.478C606.593 153.078 605.593 152.678 604.593 152.278C603.693 151.978 602.793 151.678 601.893 151.378C601.493 151.278 601.193 151.178 600.793 151.078C600.393 150.978 599.893 150.678 599.393 150.678C599.193 151.378 599.393 152.778 599.793 153.278C600.293 153.978 601.193 154.678 601.893 155.278C602.693 155.878 603.293 156.278 604.193 156.578C604.393 156.678 604.993 156.778 605.093 156.978C605.193 157.278 604.793 157.678 604.593 157.978C604.393 158.378 604.393 158.678 604.193 159.078C604.093 159.378 603.793 159.678 603.593 159.978C603.193 160.678 602.693 161.278 601.993 161.678C600.393 162.478 598.093 162.578 596.793 161.178C596.093 160.378 595.693 159.178 595.993 158.078C596.293 157.078 597.093 156.678 597.693 155.878C598.193 155.178 598.993 154.378 598.893 153.478C598.793 152.878 598.693 152.178 598.693 151.578C598.693 151.278 598.793 150.478 598.493 150.278C597.993 149.978 596.993 150.978 596.693 151.278C595.593 152.678 594.393 154.078 593.193 155.278C592.393 156.078 592.093 157.078 591.693 158.178C591.293 159.278 590.793 160.278 590.593 161.378C590.493 162.078 590.693 162.978 590.393 163.678C590.193 164.078 589.893 164.378 589.593 164.678C589.193 165.178 588.793 165.778 588.493 166.378C587.893 167.478 587.293 168.478 586.793 169.578C585.993 171.278 585.393 172.978 584.393 174.478C583.793 175.478 583.293 176.478 582.693 177.478C582.293 178.178 577.893 189.578 578.993 190.278C579.793 190.878 583.693 198.578 584.093 190.278C584.193 188.578 586.893 184.678 588.193 185.578C588.593 186.278 588.893 186.278 589.093 186.278Z" fill="url(#paint11_linear_341_472)"/>
<path d="M609.694 149.378L609.294 148.978L591.394 166.978L591.094 166.678L586.394 169.278L585.494 168.378L588.094 163.678L587.794 163.378L605.294 145.878L605.794 145.478L605.594 145.178L607.494 143.378" fill="#9CB3DB"/>
<path d="M590.393 165.878L591.393 166.978L608.893 149.478L605.293 145.878L587.793 163.378L588.893 164.378L590.393 165.878Z" fill="#EEBF3B"/>
<path d="M585.493 169.678L586.393 169.378L585.393 168.378L585.093 169.278C584.993 169.578 585.193 169.778 585.493 169.678Z" fill="#EEBF3B"/>
<path d="M590.094 167.778L590.694 167.278L587.494 164.178L586.894 164.778L585.894 167.478L587.294 168.878L590.094 167.778Z" fill="#15123F"/>
<path d="M609.294 148.978L609.694 149.378C610.294 148.778 610.994 148.078 611.594 147.378L611.794 147.578L611.994 147.778L612.194 148.078L605.194 155.078C604.894 155.378 604.894 155.778 605.194 155.978L605.294 156.078C605.594 156.378 605.994 156.378 606.194 156.078L616.394 145.778C616.694 145.478 616.694 145.078 616.394 144.878L616.294 144.778C615.994 144.478 615.594 144.478 615.394 144.778L613.994 146.178L613.694 145.878L613.494 145.678L613.294 145.478C614.294 144.278 615.394 143.078 616.394 141.878C617.394 140.778 618.294 139.578 619.094 138.478C620.794 136.278 622.194 134.378 622.894 132.978L621.794 131.878C620.394 132.578 618.394 133.978 616.294 135.678C614.794 136.878 613.094 138.278 611.494 139.678C609.294 141.578 607.194 143.478 605.494 145.178L605.694 145.378L609.294 148.978Z" fill="#15123F"/>
<path d="M609.393 157.678C609.793 156.678 609.893 155.578 610.293 154.578C609.893 154.378 609.393 154.478 608.993 154.378C608.493 154.278 607.993 154.078 607.493 153.778C606.493 153.378 605.493 152.978 604.493 152.578C603.593 152.278 602.693 151.978 601.793 151.678C601.393 151.578 601.093 151.478 600.693 151.378C600.293 151.278 599.793 150.978 599.293 150.978C599.093 151.678 599.293 153.078 599.693 153.578C600.193 154.278 601.093 154.978 601.793 155.578C602.593 156.178 603.193 156.578 604.093 156.878C604.293 156.978 604.893 157.078 604.993 157.278C605.093 157.578 604.693 157.978 604.493 158.278C604.293 158.678 604.293 158.978 604.093 159.378C603.993 159.678 603.693 159.978 603.493 160.278C603.093 160.878 602.593 161.578 601.893 161.978L608.793 160.778C608.293 160.378 609.293 158.078 609.393 157.678Z" fill="url(#paint12_linear_341_472)"/>
<path d="M547.793 248.178C554.693 229.678 582.893 177.578 582.893 177.578L592.693 181.878C592.693 181.878 587.393 268.678 554.693 288.278C534.093 300.578 544.193 257.678 547.793 248.178Z" fill="url(#paint13_linear_341_472)"/>
<path d="M594.393 178.778L583.494 176.078L571.293 183.278L593.193 193.678L594.393 178.778Z" fill="#8097CB"/>
<path d="M591.694 192.078L578.494 186.478L576.594 190.278L591.294 194.978L591.694 192.078Z" fill="#3D57A5"/>
<path d="M478.994 138.778C484.24 138.778 488.494 133.315 488.494 126.578C488.494 119.84 484.24 114.378 478.994 114.378C473.747 114.378 469.494 119.84 469.494 126.578C469.494 133.315 473.747 138.778 478.994 138.778Z" fill="#CFDAEE"/>
<path d="M480.694 134.478C484.615 134.478 487.794 130.269 487.794 125.078C487.794 119.886 484.615 115.678 480.694 115.678C476.773 115.678 473.594 119.886 473.594 125.078C473.594 130.269 476.773 134.478 480.694 134.478Z" fill="#9CB3DB"/>
<path d="M477.293 127.978C477.293 148.178 484.393 156.778 494.793 156.678C505.193 156.578 514.594 145.378 515.094 131.178C515.694 117.078 508.894 103.278 494.494 103.478C478.894 103.678 477.393 113.878 477.293 127.978Z" fill="url(#paint14_linear_341_472)"/>
<path d="M477.794 133.478C477.694 133.478 477.594 133.478 477.494 133.478C477.594 136.778 478.494 139.878 478.894 142.478C481.194 142.278 482.494 139.978 482.394 137.578C482.294 135.178 480.294 133.378 477.794 133.478Z" fill="#E06F52"/>
<path d="M501.687 142.166C504.116 142.14 506.065 140.149 506.039 137.719C506.013 135.289 504.022 133.341 501.592 133.367C499.162 133.393 497.214 135.384 497.24 137.814C497.266 140.243 499.257 142.192 501.687 142.166Z" fill="#E06F52"/>
<path d="M489.393 128.978C489.693 131.278 488.193 133.378 487.793 135.578C487.693 135.978 487.893 136.778 488.993 137.078C489.993 137.278 490.993 137.378 491.993 137.378" stroke="#15123F" stroke-width="0.5" stroke-miterlimit="10" stroke-linecap="round" stroke-linejoin="round"/>
<path d="M499.594 126.678C499.794 127.178 499.894 127.678 499.894 128.178C499.894 128.678 499.894 129.278 499.594 129.778C499.294 130.278 498.694 130.478 498.194 130.278C497.694 130.078 497.594 129.478 497.494 128.878C497.394 128.178 497.394 127.478 497.494 126.778C497.594 126.278 497.894 125.778 498.494 125.778C499.194 125.678 499.494 126.278 499.594 126.678Z" fill="#15123F"/>
<path d="M499.994 131.078C499.494 131.478 498.794 131.578 498.194 131.378C497.994 131.278 497.694 131.178 497.594 130.978" stroke="#15123F" stroke-width="0.3311" stroke-miterlimit="10" stroke-linecap="round" stroke-linejoin="round"/>
<path d="M501.094 122.178C500.194 122.078 499.294 122.078 498.394 122.178C497.294 122.278 496.194 122.578 495.094 122.178C494.794 122.078 494.394 121.778 494.394 121.478C494.394 121.178 494.694 120.878 495.094 120.778C496.494 120.078 498.094 120.178 499.694 120.278C500.494 120.378 501.694 120.478 502.294 121.078C502.994 121.878 501.794 122.278 501.094 122.178Z" fill="#15123F"/>
<path d="M502.693 120.978C502.893 121.078 503.093 121.278 503.093 121.578C503.093 121.878 502.993 122.078 502.793 122.178" stroke="#15123F" stroke-width="0.3311" stroke-miterlimit="10" stroke-linecap="round" stroke-linejoin="round"/>
<path d="M482.193 127.078C482.393 127.578 482.493 128.078 482.493 128.578C482.493 129.078 482.493 129.678 482.293 130.178C481.993 130.578 481.493 130.878 481.093 130.678C480.693 130.478 480.493 129.778 480.493 129.278C480.393 128.578 480.393 127.878 480.493 127.178C480.493 126.678 480.893 126.178 481.393 126.178C481.793 125.978 482.093 126.678 482.193 127.078Z" fill="#15123F"/>
<path d="M483.194 130.378C483.094 130.978 482.594 131.578 482.094 131.878C481.894 131.978 481.594 132.078 481.394 131.978" stroke="#15123F" stroke-width="0.3311" stroke-miterlimit="10" stroke-linecap="round" stroke-linejoin="round"/>
<path d="M485.893 122.178C485.193 122.478 484.393 122.278 483.593 122.278C482.293 122.278 481.093 122.678 479.793 122.578C479.593 122.578 479.393 122.578 479.293 122.478C479.093 122.378 478.993 122.178 479.093 121.978C479.093 121.878 479.193 121.778 479.293 121.778C480.793 120.778 482.593 120.478 484.293 120.478C484.793 120.478 485.593 120.278 486.093 120.478C486.893 121.078 486.593 121.878 485.893 122.178Z" fill="#15123F"/>
<path d="M478.593 121.978C478.393 122.378 478.493 122.878 478.793 123.178" stroke="#15123F" stroke-width="0.3311" stroke-miterlimit="10" stroke-linecap="round" stroke-linejoin="round"/>
<path d="M496.094 142.278C496.094 142.278 493.694 143.578 491.494 143.778C489.194 143.978 486.494 142.778 486.494 142.778C486.494 142.778 487.194 146.578 488.994 147.978C490.394 149.078 493.294 148.878 494.194 147.878C496.094 145.678 496.094 142.278 496.094 142.278Z" fill="white"/>
<path d="M477.693 128.878C477.593 127.378 476.393 122.478 476.393 122.478C481.893 118.578 484.893 107.978 484.893 107.978C494.693 121.978 513.494 121.478 513.494 121.478C513.494 121.478 514.793 129.378 514.593 133.578C515.193 133.978 517.393 130.378 518.793 128.578C521.793 124.978 526.493 115.178 521.393 103.178C514.593 86.9776 485.893 84.9776 479.093 99.6776C465.893 104.978 472.193 124.178 476.393 127.578C477.393 127.178 477.093 128.678 477.693 128.878Z" fill="#15123F"/>
<path d="M479.294 117.878C479.294 117.878 478.894 118.078 478.294 118.478C477.994 118.678 477.594 118.978 477.294 119.278C476.994 119.578 476.594 119.978 476.594 120.378C476.594 120.478 476.594 120.578 476.594 120.678V120.778C476.594 120.778 476.594 120.878 476.594 120.678V120.978C476.594 121.178 476.694 121.178 476.694 121.278C476.694 121.378 476.794 121.478 476.894 121.578C477.194 121.978 477.594 122.478 478.194 123.178C478.694 123.778 479.394 124.578 479.794 125.878C479.894 126.178 479.894 126.578 479.894 126.978C479.894 127.178 479.894 127.378 479.894 127.578L479.794 127.878V128.078C479.794 128.178 479.794 128.178 479.694 128.278L479.594 128.578C479.494 128.778 479.394 128.978 479.294 129.178L478.994 129.578L478.694 129.978C477.694 130.878 476.794 131.178 476.094 131.578C475.394 131.878 474.694 132.178 474.394 132.578C473.994 132.878 473.894 133.178 473.794 133.678C473.694 134.178 473.794 134.678 473.994 135.178C474.394 136.178 475.094 136.978 475.594 137.578C476.094 138.178 476.394 138.478 476.394 138.478C476.394 138.478 475.994 138.378 475.194 138.078C474.794 137.978 474.394 137.778 473.894 137.478C473.394 137.178 472.794 136.778 472.294 136.178C471.794 135.578 471.394 134.778 471.194 133.778C471.094 133.278 471.094 132.678 471.294 132.078C471.294 131.978 471.394 131.678 471.494 131.678L471.594 131.578C471.694 131.378 471.694 131.378 471.694 131.378C471.794 131.078 471.994 130.878 472.194 130.678C472.994 129.778 473.894 129.278 474.594 128.878C475.394 128.478 476.094 128.078 476.394 127.778L476.494 127.678C476.494 127.678 476.494 127.578 476.594 127.578V127.478V127.278V127.178C476.594 127.078 476.594 127.378 476.594 127.378V127.278C476.594 127.178 476.594 127.178 476.594 127.078C476.594 126.678 476.194 126.078 475.794 125.378C475.394 124.678 474.894 123.878 474.594 122.978C474.494 122.678 474.494 122.478 474.394 122.178C474.394 121.878 474.394 121.478 474.394 121.378L474.494 121.078C474.494 120.878 474.494 120.978 474.494 120.978V120.878L474.594 120.678C474.694 120.478 474.794 120.178 474.894 120.078C475.394 119.278 476.094 118.978 476.694 118.778C477.294 118.578 477.794 118.478 478.194 118.478C478.894 117.778 479.294 117.878 479.294 117.878Z" fill="#15123F"/>
<path d="M523.093 128.378C526.993 131.378 535.493 138.578 539.393 141.578C541.493 143.178 543.693 144.878 545.093 147.078C546.493 149.378 547.093 152.378 545.693 154.678C544.893 156.178 543.393 157.078 541.993 157.978C539.593 159.578 536.993 160.978 535.093 163.178C533.193 165.378 531.893 168.378 532.693 171.178C533.493 174.278 536.393 176.278 538.493 178.678C542.893 183.878 543.493 191.578 541.093 198.078C538.693 204.478 533.793 209.678 528.393 213.678C521.393 218.878 512.493 222.578 503.893 220.878C499.393 219.978 494.693 216.878 494.193 212.278C493.693 206.878 498.793 202.878 503.193 199.878C503.793 199.478 504.393 199.078 504.693 198.378C505.393 196.678 503.493 195.078 501.993 193.978C495.593 188.978 495.193 177.878 501.193 172.378C504.293 169.478 508.493 168.278 512.493 166.778C516.493 165.278 520.493 163.178 522.593 159.478C524.693 155.778 523.693 150.078 519.693 148.678C519.493 148.778 516.793 146.478 516.493 144.578C516.293 143.378 515.993 142.678 515.793 141.478C515.593 140.378 515.793 138.878 516.193 137.878" fill="#15123F"/>
<path d="M527.093 137.178C529.793 139.178 533.193 145.478 535.593 147.878C536.593 148.878 537.493 149.878 537.693 151.278C538.093 153.878 535.593 155.978 533.393 157.478C529.893 159.878 526.393 162.678 524.293 166.478C522.293 170.278 521.993 175.278 524.693 178.678C525.893 180.278 527.693 181.278 529.193 182.578C530.693 183.878 532.093 185.578 532.093 187.578C532.193 189.578 530.293 191.678 528.393 191.078" stroke="#9CB3DB" stroke-width="0.3311" stroke-miterlimit="10"/>
<path d="M517.094 170.578C507.594 175.678 506.694 182.078 508.294 184.878C509.594 187.178 512.094 188.478 513.894 190.378C516.594 193.378 517.294 198.178 515.494 201.878C513.694 205.578 509.594 207.978 505.494 207.678" stroke="#9CB3DB" stroke-width="0.3311" stroke-miterlimit="10"/>
<path d="M521.693 121.078C521.693 121.078 521.593 120.878 521.493 120.478C521.393 120.078 521.093 119.478 520.793 118.778C520.493 118.078 520.093 117.278 519.593 116.278C519.093 115.378 518.393 114.378 517.693 113.378C516.993 112.378 515.993 111.378 514.993 110.378C513.993 109.378 512.793 108.378 511.593 107.378C510.393 106.378 508.993 105.478 507.593 104.678C506.193 103.778 504.693 102.978 503.193 102.278C502.493 101.978 501.593 101.578 500.893 101.278C500.493 101.078 499.993 100.878 499.693 100.778L498.593 100.378C497.893 100.178 497.093 99.9776 496.293 99.7776C495.493 99.5776 494.793 99.3776 493.993 99.2776C492.493 99.0776 490.993 98.8776 489.493 98.7776C488.093 98.6776 486.693 98.7776 485.393 98.7776C484.793 98.8776 484.093 98.8776 483.593 98.9776C482.993 99.0776 482.493 99.0776 481.893 99.1776C481.393 99.2776 480.893 99.3776 480.393 99.4776C479.993 99.5776 479.493 99.6776 479.193 99.7776C478.793 99.8776 478.493 99.9776 478.193 100.078C477.893 100.178 477.693 100.278 477.493 100.378C477.093 100.478 476.893 100.578 476.893 100.578L476.693 100.278C476.693 100.278 476.893 100.178 477.193 99.8776C477.393 99.7776 477.593 99.5776 477.793 99.4776C478.093 99.2776 478.393 99.1776 478.693 98.9776C478.993 98.7776 479.393 98.5776 479.893 98.3776C480.293 98.1776 480.793 97.9776 481.293 97.7776C482.293 97.3776 483.493 96.9776 484.893 96.6776C486.193 96.3776 487.693 96.1776 489.293 96.0776C490.893 95.9776 492.493 95.9776 494.193 96.1776C495.893 96.2776 497.593 96.6776 499.393 97.0776C500.293 97.3776 501.093 97.5776 501.993 97.9776C502.893 98.2776 503.693 98.6776 504.493 99.0776C507.793 100.678 510.793 102.678 513.393 104.978C515.993 107.278 517.993 109.778 519.293 112.178C520.593 114.578 521.293 116.778 521.593 118.378C521.793 119.178 521.893 119.778 521.893 120.178C521.893 120.578 521.993 120.778 521.993 120.778L521.693 121.078Z" fill="#CFDAEE"/>
<path d="M516.494 139.378C521.74 139.378 525.994 133.915 525.994 127.178C525.994 120.44 521.74 114.978 516.494 114.978C511.247 114.978 506.994 120.44 506.994 127.178C506.994 133.915 511.247 139.378 516.494 139.378Z" fill="#9CB3DB"/>
<path d="M518.094 135.078C522.015 135.078 525.194 130.869 525.194 125.678C525.194 120.486 522.015 116.278 518.094 116.278C514.172 116.278 510.994 120.486 510.994 125.678C510.994 130.869 514.172 135.078 518.094 135.078Z" fill="#CFDAEE"/>
<path d="M516.494 136.078C515.894 138.278 515.294 140.578 514.594 142.778C514.394 143.578 514.194 144.378 513.594 144.978C512.894 145.778 511.793 146.078 510.793 146.378C506.693 147.278 502.393 147.478 498.293 146.978" stroke="#15123F" stroke-width="0.9933" stroke-miterlimit="10"/>
<path d="M504.893 146.778V147.578C504.893 148.378 504.293 149.078 503.493 149.078L498.693 149.278C497.893 149.278 497.193 148.678 497.193 147.878V147.078C497.193 146.278 497.793 145.578 498.593 145.578L503.393 145.378C504.193 145.278 504.793 145.978 504.893 146.778Z" fill="#15123F"/>
<path d="M307.594 206.678C307.594 206.678 299.994 192.678 296.194 188.178C291.094 182.078 281.894 181.078 277.994 190.878C274.394 199.878 281.194 206.078 288.494 207.478C295.694 208.978 307.594 206.678 307.594 206.678Z" fill="url(#paint15_linear_341_472)"/>
<path d="M318.493 203.178C318.493 203.178 316.293 186.978 317.193 179.378C318.193 171.778 324.993 170.878 329.593 173.078C334.093 175.278 337.693 180.178 335.393 187.578C333.093 194.978 318.493 203.178 318.493 203.178Z" fill="url(#paint16_linear_341_472)"/>
<path d="M314.894 228.278C314.894 228.278 303.594 217.578 298.194 214.978C292.794 212.378 284.894 214.178 283.894 221.978C282.894 229.678 285.894 235.178 294.394 236.278C302.994 237.278 314.894 228.278 314.894 228.278Z" fill="url(#paint17_linear_341_472)"/>
<path d="M326.094 222.678C326.094 222.678 326.294 210.978 328.394 203.678C330.494 196.478 336.494 195.578 340.894 198.878C345.294 202.178 346.994 209.178 343.594 213.678C340.094 218.178 326.094 222.678 326.094 222.678Z" fill="url(#paint18_linear_341_472)"/>
<path d="M308.293 187.078C308.293 187.078 300.693 181.078 293.093 172.178C285.393 163.378 287.393 146.978 300.193 145.178C311.793 143.578 316.693 154.678 316.293 163.478C315.893 172.378 308.293 187.078 308.293 187.078Z" fill="url(#paint19_linear_341_472)"/>
<path d="M302.394 155.178C302.394 155.178 306.694 202.078 335.394 263.178" stroke="#15123F" stroke-width="0.3311" stroke-miterlimit="10" stroke-linecap="round" stroke-linejoin="round"/>
<path d="M285.193 195.378C295.593 201.378 314.693 209.978 314.693 209.978C314.693 209.978 323.593 193.678 326.493 183.978" stroke="#15123F" stroke-width="0.3311" stroke-miterlimit="10" stroke-linecap="round" stroke-linejoin="round"/>
<path d="M292.793 224.978C305.493 227.078 321.193 229.178 321.193 229.178C321.193 229.178 331.993 215.178 337.693 205.978" stroke="#15123F" stroke-width="0.3311" stroke-miterlimit="10" stroke-linecap="round" stroke-linejoin="round"/>
<path d="M337.694 123.278C336.094 123.178 334.593 124.378 333.393 125.578C324.993 134.378 321.294 146.478 319.194 158.378C318.094 164.578 317.394 170.878 317.094 177.278C316.494 188.778 316.294 200.378 318.194 211.778C319.194 217.478 319.694 220.678 321.294 226.178C322.494 230.478 326.294 238.378 332.094 237.678C330.594 226.778 329.294 208.578 330.594 182.978C331.894 155.878 335.194 135.478 337.694 123.278Z" fill="url(#paint20_linear_341_472)"/>
<path d="M338.094 231.578C342.294 221.878 343.894 211.378 345.294 200.878C346.294 193.278 347.194 185.578 347.894 177.978C348.694 169.078 349.394 160.178 348.594 151.278C347.794 142.378 346.694 133.778 341.994 126.178C341.394 125.178 339.594 123.878 338.394 123.478C338.194 123.378 337.894 123.378 337.694 123.378C335.194 135.578 331.794 155.978 330.494 183.178C329.194 208.778 330.594 226.878 331.994 237.878C332.094 237.878 332.194 237.878 332.394 237.778C335.194 237.178 336.894 234.278 338.094 231.578Z" fill="url(#paint21_linear_341_472)"/>
<path d="M337.793 122.978C327.493 162.978 327.493 221.678 334.993 267.778" stroke="#FDF8F5" stroke-width="0.3311" stroke-miterlimit="10"/>
<path d="M330.894 177.578C336.194 173.178 340.994 168.278 345.194 162.978" stroke="#FDF8F5" stroke-width="0.3311" stroke-miterlimit="10"/>
<path d="M317.994 178.078C321.194 184.178 325.394 189.678 330.294 194.478" stroke="#FDF8F5" stroke-width="0.3311" stroke-miterlimit="10"/>
<path d="M330.293 207.978C331.893 207.778 333.293 206.678 334.693 205.678C336.993 203.878 339.293 202.078 341.193 199.878" stroke="#FDF8F5" stroke-width="0.3311" stroke-miterlimit="10"/>
<path d="M314.594 251.978H336.394C336.394 251.978 360.794 213.378 353.894 199.078C353.894 199.078 367.894 167.078 358.694 162.678C349.494 158.278 337.994 184.778 337.994 184.778C337.994 184.778 316.894 184.178 314.594 251.978Z" fill="url(#paint22_linear_341_472)"/>
<path d="M358.793 162.678C358.793 162.678 334.193 207.278 325.793 251.978" stroke="#15123F" stroke-width="0.3311" stroke-miterlimit="10" stroke-linecap="round" stroke-linejoin="round"/>
<path d="M333.794 290.078H311.194L307.494 251.978H337.594L333.794 290.078Z" fill="#15123F"/>
<path d="M342.194 251.978H303.594V258.978H342.194V251.978Z" fill="#383964"/>
<path d="M308.193 258.978L336.293 264.178L336.893 258.978H308.193Z" fill="#111124"/>
<path d="M455.694 217.178C455.394 214.978 453.494 213.378 451.294 213.378L451.794 215.078L337.694 214.478C336.594 215.478 335.894 216.978 336.194 218.578L347.294 289.678H467.094L455.694 217.178Z" fill="url(#paint23_linear_341_472)"/>
<path d="M451.294 213.378H340.594C339.494 213.378 337.794 214.078 336.994 215.278L454.294 215.378L451.294 213.378Z" fill="#EBF0F8"/>
<path d="M512.494 289.678H441.094V281.778H512.494C514.694 281.778 516.494 283.578 516.494 285.778C516.494 287.878 514.694 289.678 512.494 289.678Z" fill="#CFDAEE"/>
<path d="M397.694 258.878C401.173 258.878 403.994 256.057 403.994 252.578C403.994 249.098 401.173 246.278 397.694 246.278C394.214 246.278 391.394 249.098 391.394 252.578C391.394 256.057 394.214 258.878 397.694 258.878Z" fill="#CFDAEE"/>
<path d="M454.993 215.378L467.293 287.078L461.793 287.978L449.493 216.278C449.193 214.778 450.293 213.378 451.793 213.078C453.293 212.878 454.693 213.878 454.993 215.378Z" fill="#CFDAEE"/>
<path d="M561.893 277.378C561.893 277.378 571.293 273.278 567.693 261.778C564.093 250.278 550.293 252.478 551.093 241.878C551.893 231.078 562.693 233.878 567.693 230.778C572.693 227.778 567.993 219.078 575.493 215.478C582.993 211.878 590.393 217.278 600.693 219.078C610.993 220.878 619.893 222.578 619.593 219.078C619.293 215.578 614.293 215.178 615.993 210.878C617.693 206.678 626.093 206.678 627.393 207.878C627.393 207.878 618.193 207.878 617.893 211.078C617.593 214.278 624.693 215.778 624.393 221.578C624.093 227.378 611.493 226.178 599.293 225.378C586.993 224.578 588.093 229.478 589.093 235.578C590.093 241.678 588.093 245.778 580.093 246.778C572.093 247.878 568.393 248.878 572.793 257.678C576.693 265.278 573.593 272.378 566.393 277.378H561.893V277.378Z" fill="url(#paint24_linear_341_472)"/>
<path d="M576.093 276.778C575.393 283.178 573.193 287.378 571.993 289.178C571.593 289.878 570.793 290.278 569.993 290.278H561.693C560.893 290.278 560.093 289.878 559.693 289.178C558.493 287.378 556.293 283.178 555.593 276.778C555.493 276.078 556.093 275.478 556.793 275.478H574.993C575.693 275.478 576.193 276.078 576.093 276.778Z" fill="#EEBF3B"/>
<path d="M574.494 280.878C575.294 280.178 577.293 278.878 578.293 278.678C578.693 278.578 579.194 278.578 579.594 278.678C579.994 278.778 580.393 279.178 580.393 279.678C580.393 279.978 580.293 280.178 580.193 280.378C579.093 283.178 576.293 285.178 573.293 285.278" stroke="#EDBE3A" stroke-width="1.3244" stroke-miterlimit="10"/>
<path opacity="0.38" d="M573.594 284.778C573.794 284.778 573.994 284.778 574.194 284.778C574.694 283.578 575.094 282.278 575.494 280.678H555.994C556.394 282.478 556.994 283.978 557.494 285.278H573.894C573.994 285.078 573.994 284.978 574.094 284.778C573.994 284.778 573.794 284.778 573.594 284.778Z" fill="#F8ECD6"/>
<path d="M616.693 298.878H303.693V324.678H616.693V298.878Z" fill="#CFDAEE"/>
<path d="M296.194 297.878L287.494 455.278H293.294L314.694 297.878H296.194Z" fill="#44559F"/>
<path d="M624.194 297.878L632.894 455.278H627.094L605.594 297.878H624.194Z" fill="#44559F"/>
<path d="M632.693 301.378H287.793C284.693 301.378 282.193 298.878 282.193 295.778C282.193 292.678 284.693 290.178 287.793 290.178H632.693C635.793 290.178 638.293 292.678 638.293 295.778C638.293 298.878 635.793 301.378 632.693 301.378Z" fill="#44559F"/>
<path opacity="0.1" d="M295.793 304.978L625.393 320.178L624.193 298.878H296.193L295.793 304.978Z" fill="url(#paint25_linear_341_472)"/>
<path d="M630.694 459.678C635.167 459.678 638.794 458.424 638.794 456.878C638.794 455.331 635.167 454.078 630.694 454.078C626.22 454.078 622.594 455.331 622.594 456.878C622.594 458.424 626.22 459.678 630.694 459.678Z" fill="#D1DAEB"/>
<path d="M290.194 459.678C294.667 459.678 298.294 458.424 298.294 456.878C298.294 455.331 294.667 454.078 290.194 454.078C285.72 454.078 282.094 455.331 282.094 456.878C282.094 458.424 285.72 459.678 290.194 459.678Z" fill="#D1DAEB"/>
<path d="M108 459C108 451.909 106.603 444.887 103.889 438.335C101.176 431.784 97.1981 425.831 92.1838 420.816C87.1694 415.802 81.2165 411.825 74.6649 409.111C68.1133 406.397 61.0914 405 54 405C46.9086 405 39.8867 406.397 33.3351 409.111C26.7835 411.825 20.8306 415.802 15.8162 420.816C10.8019 425.831 6.82426 431.784 4.1105 438.335C1.39675 444.887 -6.19948e-07 451.909 0 459L54 459H108Z" fill="#EBF6FF"/>
<defs>
<linearGradient id="paint0_linear_341_472" x1="379.598" y1="139.755" x2="389.961" y2="139.755" gradientUnits="userSpaceOnUse">
<stop offset="0.2151" stop-color="#E9A793"/>
<stop offset="1" stop-color="#E06F52"/>
</linearGradient>
<linearGradient id="paint1_linear_341_472" x1="399.553" y1="139.557" x2="454.96" y2="140.714" gradientUnits="userSpaceOnUse">
<stop offset="0.0863958" stop-color="#EDBE3A" stop-opacity="0.9078"/>
<stop offset="0.7398" stop-color="#E28B36"/>
</linearGradient>
<linearGradient id="paint2_linear_341_472" x1="408.811" y1="139.63" x2="376.727" y2="139.96" gradientUnits="userSpaceOnUse">
<stop offset="0.2151" stop-color="#9CB3DB"/>
<stop offset="1" stop-color="#CFDAEE"/>
</linearGradient>
<linearGradient id="paint3_linear_341_472" x1="416.198" y1="139.755" x2="426.561" y2="139.755" gradientUnits="userSpaceOnUse">
<stop offset="0.2151" stop-color="#E9A793"/>
<stop offset="1" stop-color="#E06F52"/>
</linearGradient>
<linearGradient id="paint4_linear_341_472" x1="464.432" y1="140.361" x2="421.926" y2="139.534" gradientUnits="userSpaceOnUse">
<stop offset="0.2151" stop-color="#9CB3DB"/>
<stop offset="1" stop-color="#CFDAEE"/>
</linearGradient>
<linearGradient id="paint5_linear_341_472" x1="403.484" y1="43.7663" x2="505.132" y2="231.556" gradientUnits="userSpaceOnUse">
<stop offset="0.2151" stop-color="#9CB3DB"/>
<stop offset="1" stop-color="#CFDAEE"/>
</linearGradient>
<linearGradient id="paint6_linear_341_472" x1="517.819" y1="100.583" x2="580.058" y2="46.2897" gradientUnits="userSpaceOnUse">
<stop offset="0.2151" stop-color="#9CB3DB"/>
<stop offset="1" stop-color="#CFDAEE"/>
</linearGradient>
<linearGradient id="paint7_linear_341_472" x1="543.136" y1="165.003" x2="434.474" y2="194.278" gradientUnits="userSpaceOnUse">
<stop offset="2.872e-05" stop-color="#E06F52"/>
<stop offset="0.7496" stop-color="#E9A793"/>
</linearGradient>
<linearGradient id="paint8_linear_341_472" x1="490.461" y1="150.199" x2="512.624" y2="150.199" gradientUnits="userSpaceOnUse">
<stop offset="0.2151" stop-color="#A85640"/>
<stop offset="1" stop-color="#A85640" stop-opacity="0"/>
</linearGradient>
<linearGradient id="paint9_linear_341_472" x1="517.916" y1="168.96" x2="456.595" y2="249.059" gradientUnits="userSpaceOnUse">
<stop offset="0.1816" stop-color="#5B77B8"/>
<stop offset="0.5447" stop-color="#4A66AE"/>
</linearGradient>
<linearGradient id="paint10_linear_341_472" x1="485.666" y1="171.599" x2="544.797" y2="248.838" gradientUnits="userSpaceOnUse">
<stop offset="0.1816" stop-color="#5B77B8"/>
<stop offset="0.5447" stop-color="#4A66AE"/>
</linearGradient>
<linearGradient id="paint11_linear_341_472" x1="578.924" y1="172.52" x2="626.932" y2="172.52" gradientUnits="userSpaceOnUse">
<stop offset="2.872e-05" stop-color="#E06F52"/>
<stop offset="0.7496" stop-color="#E9A793"/>
</linearGradient>
<linearGradient id="paint12_linear_341_472" x1="601.21" y1="145.608" x2="609.713" y2="167.031" gradientUnits="userSpaceOnUse">
<stop offset="2.872e-05" stop-color="#E06F52"/>
<stop offset="0.9287" stop-color="#E9A793"/>
</linearGradient>
<linearGradient id="paint13_linear_341_472" x1="592.757" y1="234.034" x2="542.145" y2="234.034" gradientUnits="userSpaceOnUse">
<stop offset="0.1816" stop-color="#5B77B8"/>
<stop offset="0.5447" stop-color="#4A66AE"/>
</linearGradient>
<linearGradient id="paint14_linear_341_472" x1="507.445" y1="103.415" x2="467.68" y2="186.426" gradientUnits="userSpaceOnUse">
<stop offset="2.872e-05" stop-color="#E06F52"/>
<stop offset="0.7496" stop-color="#E9A793"/>
</linearGradient>
<linearGradient id="paint15_linear_341_472" x1="308.445" y1="197.516" x2="277.045" y2="194.596" gradientUnits="userSpaceOnUse">
<stop offset="0.0251397" stop-color="#EDBE3A" stop-opacity="0.9078"/>
<stop offset="1" stop-color="#E28B36"/>
</linearGradient>
<linearGradient id="paint16_linear_341_472" x1="335.638" y1="188.844" x2="316.542" y2="187.068" gradientUnits="userSpaceOnUse">
<stop offset="0.0251397" stop-color="#EDBE3A" stop-opacity="0.9078"/>
<stop offset="1" stop-color="#E28B36"/>
</linearGradient>
<linearGradient id="paint17_linear_341_472" x1="315.013" y1="226.971" x2="283.629" y2="224.052" gradientUnits="userSpaceOnUse">
<stop offset="0.0251397" stop-color="#EDBE3A" stop-opacity="0.9078"/>
<stop offset="1" stop-color="#E28B36"/>
</linearGradient>
<linearGradient id="paint18_linear_341_472" x1="345.13" y1="211.155" x2="327.023" y2="209.471" gradientUnits="userSpaceOnUse">
<stop offset="0.0251397" stop-color="#EDBE3A" stop-opacity="0.9078"/>
<stop offset="1" stop-color="#E28B36"/>
</linearGradient>
<linearGradient id="paint19_linear_341_472" x1="315.972" y1="166.97" x2="288.088" y2="164.377" gradientUnits="userSpaceOnUse">
<stop offset="0.0251397" stop-color="#EDBE3A" stop-opacity="0.9078"/>
<stop offset="1" stop-color="#E28B36"/>
</linearGradient>
<linearGradient id="paint20_linear_341_472" x1="326.426" y1="156.404" x2="350.956" y2="338.064" gradientUnits="userSpaceOnUse">
<stop offset="0.2151" stop-color="#9CB3DB"/>
<stop offset="1" stop-color="#CFDAEE"/>
</linearGradient>
<linearGradient id="paint21_linear_341_472" x1="358.092" y1="287.435" x2="329.583" y2="135.609" gradientUnits="userSpaceOnUse">
<stop stop-color="#677EBA"/>
<stop offset="0.4781" stop-color="#8DA3D2"/>
</linearGradient>
<linearGradient id="paint22_linear_341_472" x1="314.615" y1="207.105" x2="361.883" y2="207.105" gradientUnits="userSpaceOnUse">
<stop offset="0.0251397" stop-color="#EDBE3A" stop-opacity="0.9078"/>
<stop offset="1" stop-color="#E28B36"/>
</linearGradient>
<linearGradient id="paint23_linear_341_472" x1="389.104" y1="188.322" x2="410.115" y2="298.63" gradientUnits="userSpaceOnUse">
<stop offset="0.2151" stop-color="#9CB3DB"/>
<stop offset="1" stop-color="#CFDAEE"/>
</linearGradient>
<linearGradient id="paint24_linear_341_472" x1="590.451" y1="270.205" x2="588.326" y2="193.428" gradientUnits="userSpaceOnUse">
<stop offset="0.0492588" stop-color="white"/>
<stop offset="1" stop-color="white" stop-opacity="0.6"/>
</linearGradient>
<linearGradient id="paint25_linear_341_472" x1="460.602" y1="258.45" x2="460.602" y2="416.716" gradientUnits="userSpaceOnUse">
<stop stop-color="#15123F"/>
<stop offset="1" stop-color="#13113B" stop-opacity="0"/>
</linearGradient>
</defs>
</svg>
