<svg width="189" height="21" viewBox="0 0 189 21" fill="none" xmlns="http://www.w3.org/2000/svg">
<path d="M0.292169 5.60192C2.21361 7.22918 5.58515 10.092 6.57609 10.9846C6.70912 11.1051 6.8518 11.1664 6.99992 11.1664C7.14774 11.1664 7.29017 11.1057 7.4229 10.9858C8.41469 10.0923 11.7862 7.22918 13.7077 5.60192C13.8273 5.5008 13.8456 5.32307 13.7487 5.19945C13.5248 4.91379 13.191 4.75 12.8332 4.75H1.16659C0.808856 4.75 0.475017 4.91379 0.251153 5.19948C0.154302 5.32307 0.17254 5.5008 0.292169 5.60192Z" fill="white"/>
<path d="M13.8307 6.48377C13.7273 6.43564 13.6057 6.45243 13.5197 6.52593C12.2613 7.59261 10.6033 9.00196 9.3529 10.0775C9.28711 10.1339 9.25008 10.2168 9.2515 10.3036C9.25293 10.3902 9.29309 10.472 9.36088 10.5261C10.5227 11.4566 12.2736 12.7367 13.5379 13.6464C13.5883 13.6829 13.6481 13.7014 13.7082 13.7014C13.7538 13.7014 13.7994 13.6908 13.8413 13.6692C13.9387 13.6193 13.9999 13.5191 13.9999 13.4097V6.74837C13.9999 6.63473 13.9338 6.53134 13.8307 6.48377Z" fill="white"/>
<path d="M0.462 13.6464C1.72665 12.7366 3.4778 11.4566 4.63933 10.526C4.70712 10.4719 4.74729 10.3902 4.74871 10.3036C4.75013 10.2167 4.71311 10.1338 4.64732 10.0774C3.39689 9.00192 1.7386 7.59257 0.480238 6.52589C0.393641 6.45239 0.271742 6.43618 0.169203 6.48373C0.0660899 6.53131 0 6.63469 0 6.74833V13.4097C0 13.5191 0.06125 13.6193 0.158648 13.6692C0.200512 13.6908 0.246094 13.7014 0.291676 13.7014C0.351777 13.7014 0.411578 13.6828 0.462 13.6464Z" fill="white"/>
<path d="M13.6426 14.44C12.4215 13.5664 10.1722 11.9377 8.8295 10.8479C8.72013 10.7588 8.56175 10.7616 8.4541 10.8545C8.19064 11.0844 7.97017 11.2781 7.81379 11.4187C7.33355 11.8523 6.66705 11.8523 6.18569 11.4182C6.02989 11.2778 5.80944 11.0835 5.54596 10.8545C5.43915 10.761 5.2805 10.7582 5.17083 10.8479C3.83268 11.934 1.58081 13.5646 0.357752 14.4399C0.289666 14.4889 0.245806 14.5644 0.237275 14.6479C0.229017 14.7313 0.256634 14.8142 0.313892 14.8757C0.534666 15.1136 0.845701 15.25 1.16672 15.25H12.8334C13.1544 15.25 13.4651 15.1136 13.6865 14.8757C13.7434 14.8145 13.7713 14.7316 13.7631 14.6482C13.7545 14.5647 13.7107 14.489 13.6426 14.44Z" fill="white"/>
<path d="M29.402 14.084C28.7953 14.084 28.212 14.0047 27.652 13.846C27.092 13.678 26.6533 13.468 26.336 13.216L26.896 12.152C27.2227 12.3853 27.6193 12.572 28.086 12.712C28.5527 12.852 29.024 12.922 29.5 12.922C30.676 12.922 31.264 12.586 31.264 11.914C31.264 11.69 31.1847 11.5127 31.026 11.382C30.8673 11.2513 30.6667 11.158 30.424 11.102C30.1907 11.0367 29.8547 10.9667 29.416 10.892C28.8187 10.7987 28.3287 10.6913 27.946 10.57C27.5727 10.4487 27.2507 10.2433 26.98 9.954C26.7093 9.66467 26.574 9.25867 26.574 8.736C26.574 8.064 26.854 7.52733 27.414 7.126C27.974 6.71533 28.7253 6.51 29.668 6.51C30.1627 6.51 30.6573 6.57067 31.152 6.692C31.6467 6.81333 32.0527 6.97667 32.37 7.182L31.796 8.246C31.1893 7.854 30.4753 7.658 29.654 7.658C29.0847 7.658 28.6507 7.75133 28.352 7.938C28.0533 8.12467 27.904 8.372 27.904 8.68C27.904 8.92267 27.988 9.114 28.156 9.254C28.324 9.394 28.5293 9.49667 28.772 9.562C29.024 9.62733 29.374 9.702 29.822 9.786C30.4193 9.88867 30.9 10.0007 31.264 10.122C31.6373 10.234 31.9547 10.43 32.216 10.71C32.4773 10.99 32.608 11.382 32.608 11.886C32.608 12.558 32.3187 13.0947 31.74 13.496C31.1707 13.888 30.3913 14.084 29.402 14.084ZM37.6897 6.51C38.7163 6.51 39.5003 6.762 40.0417 7.266C40.5923 7.77 40.8677 8.52133 40.8677 9.52V14H39.5937V13.02C39.3697 13.3653 39.0477 13.6313 38.6277 13.818C38.217 13.9953 37.727 14.084 37.1577 14.084C36.327 14.084 35.6597 13.8833 35.1557 13.482C34.661 13.0807 34.4137 12.5533 34.4137 11.9C34.4137 11.2467 34.6517 10.724 35.1277 10.332C35.6037 9.93067 36.3597 9.73 37.3957 9.73H39.5237V9.464C39.5237 8.88533 39.3557 8.442 39.0197 8.134C38.6837 7.826 38.189 7.672 37.5357 7.672C37.097 7.672 36.6677 7.74667 36.2477 7.896C35.8277 8.036 35.473 8.22733 35.1837 8.47L34.6237 7.462C35.0063 7.154 35.4637 6.92067 35.9957 6.762C36.5277 6.594 37.0923 6.51 37.6897 6.51ZM37.3817 13.048C37.895 13.048 38.3383 12.936 38.7117 12.712C39.085 12.4787 39.3557 12.152 39.5237 11.732V10.696H37.4517C36.313 10.696 35.7437 11.0787 35.7437 11.844C35.7437 12.2173 35.8883 12.5113 36.1777 12.726C36.467 12.9407 36.8683 13.048 37.3817 13.048ZM44.0549 3.612H45.3989V14H44.0549V3.612ZM55.371 10.332C55.371 10.4347 55.3617 10.57 55.343 10.738H49.323C49.407 11.3913 49.6917 11.9187 50.177 12.32C50.6717 12.712 51.283 12.908 52.011 12.908C52.8977 12.908 53.6117 12.6093 54.153 12.012L54.895 12.88C54.559 13.272 54.139 13.5707 53.635 13.776C53.1403 13.9813 52.585 14.084 51.969 14.084C51.185 14.084 50.4897 13.9253 49.883 13.608C49.2763 13.2813 48.805 12.8287 48.469 12.25C48.1423 11.6713 47.979 11.018 47.979 10.29C47.979 9.57133 48.1377 8.92267 48.455 8.344C48.7817 7.76533 49.225 7.31733 49.785 7C50.3543 6.67333 50.9937 6.51 51.703 6.51C52.4123 6.51 53.0423 6.67333 53.593 7C54.153 7.31733 54.587 7.76533 54.895 8.344C55.2123 8.92267 55.371 9.58533 55.371 10.332ZM51.703 7.644C51.059 7.644 50.5177 7.84 50.079 8.232C49.6497 8.624 49.3977 9.13733 49.323 9.772H54.083C54.0083 9.14667 53.7517 8.638 53.313 8.246C52.8837 7.84467 52.347 7.644 51.703 7.644ZM60.0653 14.084C59.4586 14.084 58.8753 14.0047 58.3153 13.846C57.7553 13.678 57.3166 13.468 56.9993 13.216L57.5593 12.152C57.8859 12.3853 58.2826 12.572 58.7493 12.712C59.2159 12.852 59.6873 12.922 60.1633 12.922C61.3393 12.922 61.9273 12.586 61.9273 11.914C61.9273 11.69 61.8479 11.5127 61.6893 11.382C61.5306 11.2513 61.3299 11.158 61.0873 11.102C60.8539 11.0367 60.5179 10.9667 60.0793 10.892C59.4819 10.7987 58.9919 10.6913 58.6093 10.57C58.2359 10.4487 57.9139 10.2433 57.6433 9.954C57.3726 9.66467 57.2373 9.25867 57.2373 8.736C57.2373 8.064 57.5173 7.52733 58.0773 7.126C58.6373 6.71533 59.3886 6.51 60.3313 6.51C60.8259 6.51 61.3206 6.57067 61.8153 6.692C62.3099 6.81333 62.7159 6.97667 63.0333 7.182L62.4593 8.246C61.8526 7.854 61.1386 7.658 60.3173 7.658C59.7479 7.658 59.3139 7.75133 59.0153 7.938C58.7166 8.12467 58.5673 8.372 58.5673 8.68C58.5673 8.92267 58.6513 9.114 58.8193 9.254C58.9873 9.394 59.1926 9.49667 59.4353 9.562C59.6873 9.62733 60.0373 9.702 60.4853 9.786C61.0826 9.88867 61.5633 10.0007 61.9273 10.122C62.3006 10.234 62.6179 10.43 62.8793 10.71C63.1406 10.99 63.2713 11.382 63.2713 11.886C63.2713 12.558 62.9819 13.0947 62.4033 13.496C61.8339 13.888 61.0546 14.084 60.0653 14.084ZM71.657 4.102C72.917 4.102 74.0416 4.36333 75.031 4.886C76.0203 5.39933 76.7903 6.12267 77.341 7.056C77.901 7.98933 78.181 9.05333 78.181 10.248C78.181 11.4427 77.9616 12.3807 77.523 13.062C77.0843 13.7433 76.473 14.084 75.689 14.084C75.241 14.084 74.8676 13.972 74.569 13.748C74.2796 13.5147 74.093 13.1833 74.009 12.754C73.729 13.1833 73.3603 13.5147 72.903 13.748C72.455 13.972 71.937 14.084 71.349 14.084C70.6956 14.084 70.1076 13.93 69.585 13.622C69.0623 13.314 68.6516 12.8893 68.353 12.348C68.0636 11.7973 67.919 11.1767 67.919 10.486C67.919 9.80467 68.0636 9.19333 68.353 8.652C68.6516 8.10133 69.0623 7.67667 69.585 7.378C70.1076 7.07 70.6956 6.916 71.349 6.916C71.8903 6.916 72.3803 7.01867 72.819 7.224C73.2576 7.42 73.6216 7.714 73.911 8.106V6.972H75.129V12.012C75.129 12.3573 75.2036 12.614 75.353 12.782C75.5023 12.9407 75.6936 13.02 75.927 13.02C76.3376 13.02 76.655 12.782 76.879 12.306C77.1123 11.8207 77.229 11.1393 77.229 10.262C77.229 9.226 76.9956 8.316 76.529 7.532C76.0623 6.73867 75.4043 6.12267 74.555 5.684C73.715 5.24533 72.749 5.026 71.657 5.026C70.5556 5.026 69.5803 5.25467 68.731 5.712C67.891 6.16933 67.2376 6.80867 66.771 7.63C66.3043 8.45133 66.071 9.38933 66.071 10.444C66.071 11.508 66.2996 12.4507 66.757 13.272C67.2236 14.0933 67.8723 14.7327 68.703 15.19C69.543 15.6567 70.509 15.89 71.601 15.89C72.0583 15.89 72.525 15.8387 73.001 15.736C73.477 15.6333 73.911 15.4793 74.303 15.274L74.611 16.17C74.2003 16.3847 73.7243 16.548 73.183 16.66C72.6416 16.772 72.1143 16.828 71.601 16.828C70.3223 16.828 69.1836 16.5527 68.185 16.002C67.1956 15.4607 66.4256 14.7047 65.875 13.734C65.3243 12.7633 65.049 11.6667 65.049 10.444C65.049 9.22133 65.3243 8.12933 65.875 7.168C66.435 6.20667 67.2143 5.45533 68.213 4.914C69.221 4.37267 70.369 4.102 71.657 4.102ZM71.545 12.992C72.0023 12.992 72.4083 12.8893 72.763 12.684C73.127 12.4787 73.4116 12.1893 73.617 11.816C73.8316 11.4333 73.939 10.99 73.939 10.486C73.939 9.982 73.8316 9.54333 73.617 9.17C73.4116 8.78733 73.127 8.498 72.763 8.302C72.4083 8.09667 72.0023 7.994 71.545 7.994C70.8356 7.994 70.2616 8.22267 69.823 8.68C69.3843 9.128 69.165 9.73 69.165 10.486C69.165 11.242 69.3843 11.8487 69.823 12.306C70.271 12.7633 70.845 12.992 71.545 12.992ZM92.0575 6.58L89.2855 14H87.9975L85.8555 8.372L83.6855 14H82.3975L79.6395 6.58H80.9135L83.0695 12.488L85.3095 6.58H86.4435L88.6415 12.516L90.8535 6.58H92.0575ZM98.4983 13.566C98.3023 13.734 98.0597 13.8647 97.7703 13.958C97.481 14.042 97.1823 14.084 96.8743 14.084C96.1277 14.084 95.549 13.8833 95.1383 13.482C94.7277 13.0807 94.5223 12.5067 94.5223 11.76V7.686H93.2623V6.58H94.5223V4.956H95.8663V6.58H97.9943V7.686H95.8663V11.704C95.8663 12.1053 95.9643 12.4133 96.1603 12.628C96.3657 12.8427 96.655 12.95 97.0283 12.95C97.439 12.95 97.789 12.8333 98.0783 12.6L98.4983 13.566ZM107.675 6.58V12.992C107.675 14.2893 107.353 15.246 106.709 15.862C106.065 16.4873 105.104 16.8 103.825 16.8C103.125 16.8 102.458 16.702 101.823 16.506C101.188 16.3193 100.675 16.0487 100.283 15.694L100.927 14.658C101.272 14.9567 101.697 15.19 102.201 15.358C102.714 15.5353 103.242 15.624 103.783 15.624C104.651 15.624 105.29 15.4187 105.701 15.008C106.121 14.5973 106.331 13.972 106.331 13.132V12.544C106.014 12.9267 105.622 13.216 105.155 13.412C104.698 13.5987 104.198 13.692 103.657 13.692C102.948 13.692 102.304 13.5427 101.725 13.244C101.156 12.936 100.708 12.5113 100.381 11.97C100.054 11.4193 99.8911 10.794 99.8911 10.094C99.8911 9.394 100.054 8.77333 100.381 8.232C100.708 7.68133 101.156 7.25667 101.725 6.958C102.304 6.65933 102.948 6.51 103.657 6.51C104.217 6.51 104.735 6.61267 105.211 6.818C105.696 7.02333 106.093 7.32667 106.401 7.728V6.58H107.675ZM103.811 12.516C104.296 12.516 104.73 12.4133 105.113 12.208C105.505 12.0027 105.808 11.718 106.023 11.354C106.247 10.9807 106.359 10.5607 106.359 10.094C106.359 9.37533 106.121 8.79667 105.645 8.358C105.169 7.91 104.558 7.686 103.811 7.686C103.055 7.686 102.439 7.91 101.963 8.358C101.487 8.79667 101.249 9.37533 101.249 10.094C101.249 10.5607 101.356 10.9807 101.571 11.354C101.795 11.718 102.098 12.0027 102.481 12.208C102.873 12.4133 103.316 12.516 103.811 12.516ZM113.071 14.084C112.464 14.084 111.881 14.0047 111.321 13.846C110.761 13.678 110.322 13.468 110.005 13.216L110.565 12.152C110.892 12.3853 111.288 12.572 111.755 12.712C112.222 12.852 112.693 12.922 113.169 12.922C114.345 12.922 114.933 12.586 114.933 11.914C114.933 11.69 114.854 11.5127 114.695 11.382C114.536 11.2513 114.336 11.158 114.093 11.102C113.86 11.0367 113.524 10.9667 113.085 10.892C112.488 10.7987 111.998 10.6913 111.615 10.57C111.242 10.4487 110.92 10.2433 110.649 9.954C110.378 9.66467 110.243 9.25867 110.243 8.736C110.243 8.064 110.523 7.52733 111.083 7.126C111.643 6.71533 112.394 6.51 113.337 6.51C113.832 6.51 114.326 6.57067 114.821 6.692C115.316 6.81333 115.722 6.97667 116.039 7.182L115.465 8.246C114.858 7.854 114.144 7.658 113.323 7.658C112.754 7.658 112.32 7.75133 112.021 7.938C111.722 8.12467 111.573 8.372 111.573 8.68C111.573 8.92267 111.657 9.114 111.825 9.254C111.993 9.394 112.198 9.49667 112.441 9.562C112.693 9.62733 113.043 9.702 113.491 9.786C114.088 9.88867 114.569 10.0007 114.933 10.122C115.306 10.234 115.624 10.43 115.885 10.71C116.146 10.99 116.277 11.382 116.277 11.886C116.277 12.558 115.988 13.0947 115.409 13.496C114.84 13.888 114.06 14.084 113.071 14.084ZM122.591 6.51C123.309 6.51 123.953 6.66867 124.523 6.986C125.092 7.30333 125.535 7.74667 125.853 8.316C126.179 8.88533 126.343 9.54333 126.343 10.29C126.343 11.0367 126.179 11.6993 125.853 12.278C125.535 12.8473 125.092 13.2907 124.523 13.608C123.953 13.9253 123.309 14.084 122.591 14.084C122.059 14.084 121.569 13.9813 121.121 13.776C120.682 13.5707 120.309 13.272 120.001 12.88V16.716H118.657V6.58H119.945V7.756C120.243 7.34533 120.621 7.03733 121.079 6.832C121.536 6.61733 122.04 6.51 122.591 6.51ZM122.479 12.908C122.955 12.908 123.379 12.8007 123.753 12.586C124.135 12.362 124.434 12.054 124.649 11.662C124.873 11.2607 124.985 10.8033 124.985 10.29C124.985 9.77667 124.873 9.324 124.649 8.932C124.434 8.53067 124.135 8.22267 123.753 8.008C123.379 7.79333 122.955 7.686 122.479 7.686C122.012 7.686 121.587 7.798 121.205 8.022C120.831 8.23667 120.533 8.54 120.309 8.932C120.094 9.324 119.987 9.77667 119.987 10.29C119.987 10.8033 120.094 11.2607 120.309 11.662C120.523 12.054 120.822 12.362 121.205 12.586C121.587 12.8007 122.012 12.908 122.479 12.908ZM131.533 6.51C132.56 6.51 133.344 6.762 133.885 7.266C134.436 7.77 134.711 8.52133 134.711 9.52V14H133.437V13.02C133.213 13.3653 132.891 13.6313 132.471 13.818C132.061 13.9953 131.571 14.084 131.001 14.084C130.171 14.084 129.503 13.8833 128.999 13.482C128.505 13.0807 128.257 12.5533 128.257 11.9C128.257 11.2467 128.495 10.724 128.971 10.332C129.447 9.93067 130.203 9.73 131.239 9.73H133.367V9.464C133.367 8.88533 133.199 8.442 132.863 8.134C132.527 7.826 132.033 7.672 131.379 7.672C130.941 7.672 130.511 7.74667 130.091 7.896C129.671 8.036 129.317 8.22733 129.027 8.47L128.467 7.462C128.85 7.154 129.307 6.92067 129.839 6.762C130.371 6.594 130.936 6.51 131.533 6.51ZM131.225 13.048C131.739 13.048 132.182 12.936 132.555 12.712C132.929 12.4787 133.199 12.152 133.367 11.732V10.696H131.295C130.157 10.696 129.587 11.0787 129.587 11.844C129.587 12.2173 129.732 12.5113 130.021 12.726C130.311 12.9407 130.712 13.048 131.225 13.048ZM137.899 6.58H139.243V14H137.899V6.58ZM138.571 5.152C138.309 5.152 138.09 5.068 137.913 4.9C137.745 4.732 137.661 4.52667 137.661 4.284C137.661 4.04133 137.745 3.836 137.913 3.668C138.09 3.49067 138.309 3.402 138.571 3.402C138.832 3.402 139.047 3.486 139.215 3.654C139.392 3.81267 139.481 4.01333 139.481 4.256C139.481 4.508 139.392 4.72267 139.215 4.9C139.047 5.068 138.832 5.152 138.571 5.152ZM146.471 6.51C147.413 6.51 148.16 6.78533 148.711 7.336C149.271 7.87733 149.551 8.67533 149.551 9.73V14H148.207V9.884C148.207 9.16533 148.034 8.624 147.689 8.26C147.343 7.896 146.849 7.714 146.205 7.714C145.477 7.714 144.903 7.92867 144.483 8.358C144.063 8.778 143.853 9.38467 143.853 10.178V14H142.509V6.58H143.797V7.7C144.067 7.31733 144.431 7.02333 144.889 6.818C145.355 6.61267 145.883 6.51 146.471 6.51ZM153.06 14.084C152.799 14.084 152.575 13.9953 152.388 13.818C152.201 13.6313 152.108 13.398 152.108 13.118C152.108 12.8473 152.201 12.6233 152.388 12.446C152.575 12.2593 152.799 12.166 153.06 12.166C153.321 12.166 153.541 12.2547 153.718 12.432C153.895 12.6093 153.984 12.838 153.984 13.118C153.984 13.398 153.891 13.6313 153.704 13.818C153.527 13.9953 153.312 14.084 153.06 14.084ZM159.68 14.084C158.924 14.084 158.247 13.9207 157.65 13.594C157.062 13.2673 156.6 12.8193 156.264 12.25C155.928 11.6713 155.76 11.018 155.76 10.29C155.76 9.562 155.928 8.91333 156.264 8.344C156.6 7.76533 157.062 7.31733 157.65 7C158.247 6.67333 158.924 6.51 159.68 6.51C160.352 6.51 160.949 6.64533 161.472 6.916C162.004 7.18667 162.415 7.57867 162.704 8.092L161.682 8.75C161.449 8.39533 161.159 8.12933 160.814 7.952C160.469 7.77467 160.086 7.686 159.666 7.686C159.181 7.686 158.742 7.79333 158.35 8.008C157.967 8.22267 157.664 8.53067 157.44 8.932C157.225 9.324 157.118 9.77667 157.118 10.29C157.118 10.8127 157.225 11.2747 157.44 11.676C157.664 12.068 157.967 12.3713 158.35 12.586C158.742 12.8007 159.181 12.908 159.666 12.908C160.086 12.908 160.469 12.8193 160.814 12.642C161.159 12.4647 161.449 12.1987 161.682 11.844L162.704 12.488C162.415 13.0013 162.004 13.398 161.472 13.678C160.949 13.9487 160.352 14.084 159.68 14.084ZM168.213 14.084C167.475 14.084 166.813 13.9207 166.225 13.594C165.637 13.2673 165.175 12.8193 164.839 12.25C164.512 11.6713 164.349 11.018 164.349 10.29C164.349 9.562 164.512 8.91333 164.839 8.344C165.175 7.76533 165.637 7.31733 166.225 7C166.813 6.67333 167.475 6.51 168.213 6.51C168.95 6.51 169.608 6.67333 170.187 7C170.775 7.31733 171.232 7.76533 171.559 8.344C171.895 8.91333 172.063 9.562 172.063 10.29C172.063 11.018 171.895 11.6713 171.559 12.25C171.232 12.8193 170.775 13.2673 170.187 13.594C169.608 13.9207 168.95 14.084 168.213 14.084ZM168.213 12.908C168.689 12.908 169.113 12.8007 169.487 12.586C169.869 12.362 170.168 12.054 170.383 11.662C170.597 11.2607 170.705 10.8033 170.705 10.29C170.705 9.77667 170.597 9.324 170.383 8.932C170.168 8.53067 169.869 8.22267 169.487 8.008C169.113 7.79333 168.689 7.686 168.213 7.686C167.737 7.686 167.307 7.79333 166.925 8.008C166.551 8.22267 166.253 8.53067 166.029 8.932C165.814 9.324 165.707 9.77667 165.707 10.29C165.707 10.8033 165.814 11.2607 166.029 11.662C166.253 12.054 166.551 12.362 166.925 12.586C167.307 12.8007 167.737 12.908 168.213 12.908ZM183.903 6.51C184.837 6.51 185.574 6.78067 186.115 7.322C186.666 7.86333 186.941 8.666 186.941 9.73V14H185.597V9.884C185.597 9.16533 185.429 8.624 185.093 8.26C184.767 7.896 184.295 7.714 183.679 7.714C182.998 7.714 182.457 7.92867 182.055 8.358C181.654 8.778 181.453 9.38467 181.453 10.178V14H180.109V9.884C180.109 9.16533 179.941 8.624 179.605 8.26C179.279 7.896 178.807 7.714 178.191 7.714C177.51 7.714 176.969 7.92867 176.567 8.358C176.166 8.778 175.965 9.38467 175.965 10.178V14H174.621V6.58H175.909V7.686C176.18 7.30333 176.535 7.014 176.973 6.818C177.412 6.61267 177.911 6.51 178.471 6.51C179.05 6.51 179.563 6.62667 180.011 6.86C180.459 7.09333 180.805 7.434 181.047 7.882C181.327 7.45267 181.715 7.11667 182.209 6.874C182.713 6.63133 183.278 6.51 183.903 6.51Z" fill="white"/>
</svg>
