<svg width="147" height="17" viewBox="0 0 147 17" fill="none" xmlns="http://www.w3.org/2000/svg">
<path d="M13.6329 12.2962L11.675 10.3384C10.9758 9.63912 9.7871 9.91884 9.50741 10.8278C9.29764 11.4572 8.5984 11.8068 7.96909 11.6669C6.57063 11.3173 4.6827 9.49927 4.33308 8.03089C4.12331 7.40155 4.54285 6.70231 5.17216 6.49257C6.08116 6.21288 6.36086 5.02418 5.66162 4.32495L3.70377 2.3671C3.14439 1.87763 2.30531 1.87763 1.81584 2.3671L0.4873 3.69564C-0.841242 5.09411 0.627147 8.80004 3.91354 12.0864C7.19994 15.3728 10.9059 16.9112 12.3043 15.5127L13.6329 14.1841C14.1224 13.6247 14.1224 12.7857 13.6329 12.2962Z" fill="white"/>
<path d="M33.21 9.66H30.662V12.166H29.486V9.66H26.938V8.554H29.486V6.034H30.662V8.554H33.21V9.66ZM38.999 8.316C39.9603 8.40933 40.693 8.708 41.197 9.212C41.701 9.70667 41.953 10.3413 41.953 11.116C41.953 11.676 41.813 12.1847 41.533 12.642C41.253 13.09 40.833 13.4493 40.273 13.72C39.7223 13.9813 39.0457 14.112 38.243 14.112C37.543 14.112 36.871 14.0093 36.227 13.804C35.583 13.5893 35.0557 13.2953 34.645 12.922L35.289 11.816C35.625 12.1333 36.0543 12.39 36.577 12.586C37.0997 12.7727 37.655 12.866 38.243 12.866C38.971 12.866 39.5357 12.712 39.937 12.404C40.3477 12.096 40.553 11.6713 40.553 11.13C40.553 10.5887 40.3523 10.1687 39.951 9.87C39.5497 9.57133 38.943 9.422 38.131 9.422H37.347V8.442L39.811 5.418H35.093V4.2H41.561V5.152L38.999 8.316ZM52.4847 11.592H50.6227V14H49.2647V11.592H43.8187V10.612L48.8307 4.2H50.3427L45.5407 10.388H49.3067V8.26H50.6227V10.388H52.4847V11.592ZM61.6617 4.088C62.9777 4.088 63.9904 4.51267 64.6997 5.362C65.4184 6.21133 65.7777 7.41533 65.7777 8.974C65.7777 10.066 65.5817 10.9993 65.1897 11.774C64.8071 12.5393 64.2657 13.1227 63.5657 13.524C62.8751 13.916 62.0677 14.112 61.1437 14.112C60.6677 14.112 60.2197 14.0653 59.7997 13.972C59.3797 13.8693 59.0157 13.7247 58.7077 13.538L59.2397 12.446C59.7157 12.754 60.3457 12.908 61.1297 12.908C62.1471 12.908 62.9404 12.5953 63.5097 11.97C64.0884 11.3353 64.3777 10.416 64.3777 9.212V8.862C64.0977 9.282 63.7104 9.604 63.2157 9.828C62.7211 10.0427 62.1657 10.15 61.5497 10.15C60.9057 10.15 60.3271 10.0287 59.8137 9.786C59.3097 9.54333 58.9131 9.198 58.6237 8.75C58.3437 8.29267 58.2037 7.77 58.2037 7.182C58.2037 6.566 58.3531 6.02467 58.6517 5.558C58.9597 5.09133 59.3751 4.732 59.8977 4.48C60.4204 4.21867 61.0084 4.088 61.6617 4.088ZM61.7877 9.016C62.2264 9.016 62.6184 8.932 62.9637 8.764C63.3091 8.596 63.5751 8.36733 63.7617 8.078C63.9577 7.78867 64.0557 7.46667 64.0557 7.112C64.0557 6.76667 63.9624 6.454 63.7757 6.174C63.5984 5.88467 63.3324 5.656 62.9777 5.488C62.6324 5.31067 62.2124 5.222 61.7177 5.222C61.0737 5.222 60.5511 5.39467 60.1497 5.74C59.7577 6.08533 59.5617 6.54733 59.5617 7.126C59.5617 7.70467 59.7624 8.16667 60.1637 8.512C60.5651 8.848 61.1064 9.016 61.7877 9.016ZM72.0523 8.05C72.6963 8.05 73.2703 8.17133 73.7743 8.414C74.2877 8.65667 74.689 9.00667 74.9783 9.464C75.2677 9.912 75.4123 10.43 75.4123 11.018C75.4123 11.634 75.2583 12.1753 74.9503 12.642C74.6517 13.1087 74.2363 13.4727 73.7043 13.734C73.1817 13.986 72.5937 14.112 71.9403 14.112C70.6243 14.112 69.607 13.6873 68.8883 12.838C68.179 11.9887 67.8243 10.7847 67.8243 9.226C67.8243 8.134 68.0157 7.20533 68.3983 6.44C68.7903 5.66533 69.3317 5.082 70.0223 4.69C70.7223 4.28867 71.5343 4.088 72.4583 4.088C72.9343 4.088 73.3823 4.13933 73.8023 4.242C74.2223 4.33533 74.5863 4.47533 74.8943 4.662L74.3623 5.754C73.8957 5.446 73.2703 5.292 72.4863 5.292C71.469 5.292 70.671 5.60933 70.0923 6.244C69.5137 6.86933 69.2243 7.784 69.2243 8.988C69.2243 9.13733 69.229 9.254 69.2383 9.338C69.5183 8.918 69.901 8.60067 70.3863 8.386C70.881 8.162 71.4363 8.05 72.0523 8.05ZM71.8843 12.978C72.5283 12.978 73.051 12.8053 73.4523 12.46C73.8537 12.1147 74.0543 11.6527 74.0543 11.074C74.0543 10.4953 73.849 10.038 73.4383 9.702C73.037 9.35667 72.4957 9.184 71.8143 9.184C71.3757 9.184 70.9837 9.268 70.6383 9.436C70.3023 9.604 70.0363 9.83267 69.8403 10.122C69.6537 10.4113 69.5603 10.7333 69.5603 11.088C69.5603 11.4333 69.649 11.7507 69.8263 12.04C70.013 12.32 70.279 12.5487 70.6243 12.726C70.979 12.894 71.399 12.978 71.8843 12.978ZM79.965 8.106C81.365 8.106 82.3916 8.372 83.045 8.904C83.7076 9.42667 84.039 10.1453 84.039 11.06C84.039 11.6387 83.899 12.1613 83.619 12.628C83.3483 13.0853 82.933 13.4493 82.373 13.72C81.8223 13.9813 81.141 14.112 80.329 14.112C79.6383 14.112 78.971 14.0093 78.327 13.804C77.683 13.5893 77.151 13.2953 76.731 12.922L77.375 11.816C77.711 12.1333 78.1403 12.39 78.663 12.586C79.1856 12.7727 79.7363 12.866 80.315 12.866C81.0523 12.866 81.6216 12.712 82.023 12.404C82.4336 12.0867 82.639 11.6573 82.639 11.116C82.639 10.528 82.415 10.0847 81.967 9.786C81.519 9.478 80.7536 9.324 79.671 9.324H77.445L77.963 4.2H83.493V5.418H79.139L78.873 8.106H79.965ZM94.3678 14.112C93.5931 14.112 92.9025 13.916 92.2958 13.524C91.6985 13.1227 91.2271 12.544 90.8818 11.788C90.5365 11.032 90.3638 10.136 90.3638 9.1C90.3638 8.064 90.5365 7.168 90.8818 6.412C91.2271 5.656 91.6985 5.082 92.2958 4.69C92.9025 4.28867 93.5931 4.088 94.3678 4.088C95.1331 4.088 95.8145 4.28867 96.4118 4.69C97.0185 5.082 97.4945 5.656 97.8398 6.412C98.1851 7.168 98.3578 8.064 98.3578 9.1C98.3578 10.136 98.1851 11.032 97.8398 11.788C97.4945 12.544 97.0185 13.1227 96.4118 13.524C95.8145 13.916 95.1331 14.112 94.3678 14.112ZM94.3678 12.866C95.1518 12.866 95.7771 12.544 96.2438 11.9C96.7198 11.256 96.9578 10.3227 96.9578 9.1C96.9578 7.87733 96.7198 6.944 96.2438 6.3C95.7771 5.656 95.1518 5.334 94.3678 5.334C93.5745 5.334 92.9398 5.656 92.4638 6.3C91.9971 6.944 91.7638 7.87733 91.7638 9.1C91.7638 10.3227 91.9971 11.256 92.4638 11.9C92.9398 12.544 93.5745 12.866 94.3678 12.866ZM107.249 12.782V14H100.207V13.048L104.197 9.198C104.682 8.73133 105.009 8.33 105.177 7.994C105.345 7.64867 105.429 7.30333 105.429 6.958C105.429 6.44467 105.247 6.048 104.883 5.768C104.528 5.47867 104.015 5.334 103.343 5.334C102.26 5.334 101.425 5.68867 100.837 6.398L99.8847 5.572C100.267 5.10533 100.767 4.74133 101.383 4.48C102.008 4.21867 102.703 4.088 103.469 4.088C104.495 4.088 105.312 4.33533 105.919 4.83C106.525 5.31533 106.829 5.978 106.829 6.818C106.829 7.34067 106.717 7.83533 106.493 8.302C106.269 8.76867 105.844 9.30067 105.219 9.898L102.223 12.782H107.249ZM113.063 14.112C112.288 14.112 111.597 13.916 110.991 13.524C110.393 13.1227 109.922 12.544 109.577 11.788C109.231 11.032 109.059 10.136 109.059 9.1C109.059 8.064 109.231 7.168 109.577 6.412C109.922 5.656 110.393 5.082 110.991 4.69C111.597 4.28867 112.288 4.088 113.063 4.088C113.828 4.088 114.509 4.28867 115.107 4.69C115.713 5.082 116.189 5.656 116.535 6.412C116.88 7.168 117.053 8.064 117.053 9.1C117.053 10.136 116.88 11.032 116.535 11.788C116.189 12.544 115.713 13.1227 115.107 13.524C114.509 13.916 113.828 14.112 113.063 14.112ZM113.063 12.866C113.847 12.866 114.472 12.544 114.939 11.9C115.415 11.256 115.653 10.3227 115.653 9.1C115.653 7.87733 115.415 6.944 114.939 6.3C114.472 5.656 113.847 5.334 113.063 5.334C112.269 5.334 111.635 5.656 111.159 6.3C110.692 6.944 110.459 7.87733 110.459 9.1C110.459 10.3227 110.692 11.256 111.159 11.9C111.635 12.544 112.269 12.866 113.063 12.866ZM126.141 4.2V5.152L122.179 14H120.695L124.573 5.418H120.093V7.168H118.749V4.2H126.141ZM133.814 8.862C134.374 9.07667 134.803 9.38467 135.102 9.786C135.401 10.1873 135.55 10.668 135.55 11.228C135.55 11.816 135.391 12.3293 135.074 12.768C134.757 13.1973 134.304 13.5287 133.716 13.762C133.128 13.9953 132.437 14.112 131.644 14.112C130.86 14.112 130.174 13.9953 129.586 13.762C129.007 13.5287 128.559 13.1973 128.242 12.768C127.925 12.3293 127.766 11.816 127.766 11.228C127.766 10.668 127.911 10.1873 128.2 9.786C128.499 9.38467 128.928 9.07667 129.488 8.862C129.04 8.64733 128.699 8.36267 128.466 8.008C128.233 7.65333 128.116 7.23333 128.116 6.748C128.116 6.20667 128.261 5.73533 128.55 5.334C128.849 4.93267 129.264 4.62467 129.796 4.41C130.328 4.19533 130.944 4.088 131.644 4.088C132.353 4.088 132.974 4.19533 133.506 4.41C134.047 4.62467 134.463 4.93267 134.752 5.334C135.051 5.73533 135.2 6.20667 135.2 6.748C135.2 7.224 135.079 7.644 134.836 8.008C134.603 8.36267 134.262 8.64733 133.814 8.862ZM131.644 5.222C130.981 5.222 130.459 5.36667 130.076 5.656C129.693 5.936 129.502 6.31867 129.502 6.804C129.502 7.28933 129.689 7.672 130.062 7.952C130.445 8.232 130.972 8.372 131.644 8.372C132.325 8.372 132.857 8.232 133.24 7.952C133.632 7.672 133.828 7.28933 133.828 6.804C133.828 6.31867 133.627 5.936 133.226 5.656C132.834 5.36667 132.307 5.222 131.644 5.222ZM131.644 12.978C132.419 12.978 133.03 12.8193 133.478 12.502C133.926 12.1753 134.15 11.7367 134.15 11.186C134.15 10.6447 133.926 10.22 133.478 9.912C133.03 9.59467 132.419 9.436 131.644 9.436C130.869 9.436 130.263 9.59467 129.824 9.912C129.385 10.22 129.166 10.6447 129.166 11.186C129.166 11.7367 129.385 12.1753 129.824 12.502C130.263 12.8193 130.869 12.978 131.644 12.978ZM146.058 11.592H144.196V14H142.838V11.592H137.392V10.612L142.404 4.2H143.916L139.114 10.388H142.88V8.26H144.196V10.388H146.058V11.592Z" fill="white"/>
</svg>
