<svg width="93" height="18" viewBox="0 0 93 18" fill="none" xmlns="http://www.w3.org/2000/svg">
<path d="M39.2978 5.6L36.4898 14H35.2298L32.9378 7.292L30.6458 14H29.3618L26.5538 5.6H27.7898L30.0578 12.428L32.4218 5.6H33.5258L35.8418 12.464L38.1578 5.6H39.2978ZM44.4095 7.58C45.2175 7.58 45.8575 7.816 46.3295 8.288C46.8095 8.752 47.0495 9.436 47.0495 10.34V14H45.8975V10.472C45.8975 9.856 45.7495 9.392 45.4535 9.08C45.1575 8.768 44.7335 8.612 44.1815 8.612C43.5575 8.612 43.0655 8.796 42.7055 9.164C42.3455 9.524 42.1655 10.044 42.1655 10.724V14H41.0135V5.096H42.1655V8.54C42.4055 8.236 42.7175 8 43.1015 7.832C43.4935 7.664 43.9295 7.58 44.4095 7.58ZM51.7375 7.58C52.6175 7.58 53.2895 7.796 53.7535 8.228C54.2255 8.66 54.4615 9.304 54.4615 10.16V14H53.3695V13.16C53.1775 13.456 52.9015 13.684 52.5415 13.844C52.1895 13.996 51.7695 14.072 51.2815 14.072C50.5695 14.072 49.9975 13.9 49.5655 13.556C49.1415 13.212 48.9295 12.76 48.9295 12.2C48.9295 11.64 49.1335 11.192 49.5415 10.856C49.9495 10.512 50.5975 10.34 51.4855 10.34H53.3095V10.112C53.3095 9.616 53.1655 9.236 52.8775 8.972C52.5895 8.708 52.1655 8.576 51.6055 8.576C51.2295 8.576 50.8615 8.64 50.5015 8.768C50.1415 8.888 49.8375 9.052 49.5895 9.26L49.1095 8.396C49.4375 8.132 49.8295 7.932 50.2855 7.796C50.7415 7.652 51.2255 7.58 51.7375 7.58ZM51.4735 13.184C51.9135 13.184 52.2935 13.088 52.6135 12.896C52.9335 12.696 53.1655 12.416 53.3095 12.056V11.168H51.5335C50.5575 11.168 50.0695 11.496 50.0695 12.152C50.0695 12.472 50.1935 12.724 50.4415 12.908C50.6895 13.092 51.0335 13.184 51.4735 13.184ZM60.4093 13.628C60.2413 13.772 60.0333 13.884 59.7853 13.964C59.5373 14.036 59.2813 14.072 59.0173 14.072C58.3773 14.072 57.8813 13.9 57.5293 13.556C57.1773 13.212 57.0013 12.72 57.0013 12.08V8.588H55.9213V7.64H57.0013V6.248H58.1533V7.64H59.9773V8.588H58.1533V12.032C58.1533 12.376 58.2373 12.64 58.4053 12.824C58.5813 13.008 58.8293 13.1 59.1493 13.1C59.5013 13.1 59.8013 13 60.0493 12.8L60.4093 13.628ZM63.8661 14.072C63.3461 14.072 62.8461 14.004 62.3661 13.868C61.8861 13.724 61.5101 13.544 61.2381 13.328L61.7181 12.416C61.9981 12.616 62.3381 12.776 62.7381 12.896C63.1381 13.016 63.5421 13.076 63.9501 13.076C64.9581 13.076 65.4621 12.788 65.4621 12.212C65.4621 12.02 65.3941 11.868 65.2581 11.756C65.1221 11.644 64.9501 11.564 64.7421 11.516C64.5421 11.46 64.2541 11.4 63.8781 11.336C63.3661 11.256 62.9461 11.164 62.6181 11.06C62.2981 10.956 62.0221 10.78 61.7901 10.532C61.5581 10.284 61.4421 9.936 61.4421 9.488C61.4421 8.912 61.6821 8.452 62.1621 8.108C62.6421 7.756 63.2861 7.58 64.0941 7.58C64.5181 7.58 64.9421 7.632 65.3661 7.736C65.7901 7.84 66.1381 7.98 66.4101 8.156L65.9181 9.068C65.3981 8.732 64.7861 8.564 64.0821 8.564C63.5941 8.564 63.2221 8.644 62.9661 8.804C62.7101 8.964 62.5821 9.176 62.5821 9.44C62.5821 9.648 62.6541 9.812 62.7981 9.932C62.9421 10.052 63.1181 10.14 63.3261 10.196C63.5421 10.252 63.8421 10.316 64.2261 10.388C64.7381 10.476 65.1501 10.572 65.4621 10.676C65.7821 10.772 66.0541 10.94 66.2781 11.18C66.5021 11.42 66.6141 11.756 66.6141 12.188C66.6141 12.764 66.3661 13.224 65.8701 13.568C65.3821 13.904 64.7141 14.072 63.8661 14.072ZM73.8138 11.9H69.3498L68.4258 14H67.1898L70.9938 5.6H72.1818L75.9978 14H74.7378L73.8138 11.9ZM73.3938 10.94L71.5818 6.824L69.7698 10.94H73.3938ZM80.6949 7.58C81.3109 7.58 81.8629 7.716 82.3509 7.988C82.8389 8.26 83.2189 8.64 83.4909 9.128C83.7709 9.616 83.9109 10.18 83.9109 10.82C83.9109 11.46 83.7709 12.028 83.4909 12.524C83.2189 13.012 82.8389 13.392 82.3509 13.664C81.8629 13.936 81.3109 14.072 80.6949 14.072C80.2389 14.072 79.8189 13.984 79.4349 13.808C79.0589 13.632 78.7389 13.376 78.4749 13.04V16.328H77.3229V7.64H78.4269V8.648C78.6829 8.296 79.0069 8.032 79.3989 7.856C79.7909 7.672 80.2229 7.58 80.6949 7.58ZM80.5989 13.064C81.0069 13.064 81.3709 12.972 81.6909 12.788C82.0189 12.596 82.2749 12.332 82.4589 11.996C82.6509 11.652 82.7469 11.26 82.7469 10.82C82.7469 10.38 82.6509 9.992 82.4589 9.656C82.2749 9.312 82.0189 9.048 81.6909 8.864C81.3709 8.68 81.0069 8.588 80.5989 8.588C80.1989 8.588 79.8349 8.684 79.5069 8.876C79.1869 9.06 78.9309 9.32 78.7389 9.656C78.5549 9.992 78.4629 10.38 78.4629 10.82C78.4629 11.26 78.5549 11.652 78.7389 11.996C78.9229 12.332 79.1789 12.596 79.5069 12.788C79.8349 12.972 80.1989 13.064 80.5989 13.064ZM89.1145 7.58C89.7305 7.58 90.2825 7.716 90.7705 7.988C91.2585 8.26 91.6385 8.64 91.9105 9.128C92.1905 9.616 92.3305 10.18 92.3305 10.82C92.3305 11.46 92.1905 12.028 91.9105 12.524C91.6385 13.012 91.2585 13.392 90.7705 13.664C90.2825 13.936 89.7305 14.072 89.1145 14.072C88.6585 14.072 88.2385 13.984 87.8545 13.808C87.4785 13.632 87.1585 13.376 86.8945 13.04V16.328H85.7425V7.64H86.8465V8.648C87.1025 8.296 87.4265 8.032 87.8185 7.856C88.2105 7.672 88.6425 7.58 89.1145 7.58ZM89.0185 13.064C89.4265 13.064 89.7905 12.972 90.1105 12.788C90.4385 12.596 90.6945 12.332 90.8785 11.996C91.0705 11.652 91.1665 11.26 91.1665 10.82C91.1665 10.38 91.0705 9.992 90.8785 9.656C90.6945 9.312 90.4385 9.048 90.1105 8.864C89.7905 8.68 89.4265 8.588 89.0185 8.588C88.6185 8.588 88.2545 8.684 87.9265 8.876C87.6065 9.06 87.3505 9.32 87.1585 9.656C86.9745 9.992 86.8825 10.38 86.8825 10.82C86.8825 11.26 86.9745 11.652 87.1585 11.996C87.3425 12.332 87.5985 12.596 87.9265 12.788C88.2545 12.972 88.6185 13.064 89.0185 13.064Z" fill="white"/>
<path fill-rule="evenodd" clip-rule="evenodd" d="M14.9694 3.00606C13.3907 1.42548 11.2911 0.554638 9.05432 0.553711C4.44521 0.553711 0.694065 4.30475 0.692211 8.91509C0.691593 10.3889 1.0766 11.8275 1.80839 13.0956L0.62207 17.4287L5.05495 16.2659C6.27639 16.9322 7.6515 17.2833 9.05092 17.2837H9.05442C13.663 17.2837 17.4146 13.5323 17.4163 8.92179C17.4172 6.68738 16.5483 4.58655 14.9694 3.00606ZM9.05432 15.8715H9.05143C7.80435 15.871 6.58126 15.5358 5.51401 14.9027L5.26033 14.752L2.62979 15.4421L3.33192 12.8774L3.16661 12.6144C2.47086 11.5078 2.10347 10.2288 2.10409 8.91561C2.10553 5.08361 5.22345 1.966 9.0571 1.966C10.9135 1.96662 12.6586 2.69048 13.9708 4.00421C15.2829 5.31793 16.0052 7.06414 16.0045 8.92127C16.0029 12.7536 12.8852 15.8715 9.05432 15.8715ZM12.8666 10.6661C12.6578 10.5615 11.6305 10.0562 11.4389 9.98636C11.2475 9.91664 11.1081 9.88193 10.9689 10.091C10.8296 10.3001 10.4292 10.7708 10.3073 10.9101C10.1853 11.0496 10.0636 11.0671 9.8546 10.9625C9.64562 10.8579 8.97243 10.6372 8.17431 9.92539C7.55324 9.37137 7.13394 8.68716 7.01199 8.47808C6.89025 8.26879 7.01096 8.16662 7.10366 8.05167C7.32984 7.7708 7.55633 7.47633 7.62596 7.33698C7.69568 7.19752 7.66077 7.07547 7.60845 6.97093C7.55633 6.86638 7.13847 5.83796 6.96441 5.41949C6.79467 5.01224 6.62256 5.06724 6.49423 5.06085C6.37248 5.05477 6.23313 5.05354 6.09378 5.05354C5.95452 5.05354 5.72814 5.10576 5.53656 5.31505C5.34509 5.52423 4.80539 6.02964 4.80539 7.05806C4.80539 8.08649 5.55407 9.07999 5.65851 9.21945C5.76295 9.35891 7.13188 11.4693 9.22776 12.3742C9.72627 12.5897 10.1154 12.7181 10.4189 12.8145C10.9195 12.9735 11.3748 12.951 11.7349 12.8973C12.1364 12.8372 12.971 12.3918 13.1452 11.9038C13.3193 11.4157 13.3193 10.9974 13.267 10.9101C13.2149 10.823 13.0755 10.7708 12.8666 10.6661Z" fill="white"/>
</svg>
